<?xml version="1.0" encoding="iso-8859-1"?>
<!-- Generator: Adobe Illustrator 17.1.0, SVG Export Plug-In . SVG Version: 6.00 Build 0)  -->
<!DOCTYPE svg PUBLIC "-//W3C//DTD SVG 1.0//EN" "http://www.w3.org/TR/2001/REC-SVG-20010904/DTD/svg10.dtd">
<svg version="1.0" xmlns="http://www.w3.org/2000/svg" xmlns:xlink="http://www.w3.org/1999/xlink" x="0px" y="0px" width="110px"
	 height="110px" viewBox="0 0 110 110" style="enable-background:new 0 0 110 110;" xml:space="preserve">
<g id="Artboard" style="display:none;">
	<rect x="-1223" y="-181" style="display:inline;fill:#898989;" width="1374" height="578"/>
</g>
<g id="R-Multicolor" style="display:none;">
	<circle style="display:inline;fill:#32BEA6;" cx="55" cy="55" r="55"/>
	<g style="display:inline;">
		<path style="fill:#FFFFFF;" d="M75,79.405C75,87,65.618,87,59.363,87h-8.726C44.382,87,35,87,35,79.405v-48.81
			C35,23,44.382,23,50.637,23h8.726C65.618,23,75,23,75,30.595V79.405z"/>
		<polygon style="fill:#3E3E3F;" points="72,79 38,79 38,31 72,30.941 		"/>
		<polygon style="fill:#5B5C5F;" points="38,79 38,31 72,30.941 		"/>
		<circle style="fill:#3E3E3F;" cx="66.437" cy="27.747" r="1.284"/>
		<path style="fill:#CFD3D4;" d="M59,83.099c0,0.552-0.448,1-1,1h-6c-0.552,0-1-0.448-1-1c0-0.552,0.448-1,1-1h6
			C58.552,82.099,59,82.546,59,83.099z"/>
		<rect x="51" y="26.125" style="fill:#CFD3D4;" width="8" height="2"/>
	</g>
</g>
<g id="Multicolor_1_" style="display:none;">
	<g style="display:inline;">
		<path style="fill:#FFFFFF;" d="M75,79.405C75,87,65.618,87,59.363,87h-8.726C44.382,87,35,87,35,79.405v-48.81
			C35,23,44.382,23,50.637,23h8.726C65.618,23,75,23,75,30.595V79.405z"/>
		<polygon style="fill:#3E3E3F;" points="72,79 38,79 38,31 72,30.941 		"/>
		<polygon style="fill:#5B5C5F;" points="38,79 38,31 72,30.941 		"/>
		<circle style="fill:#3E3E3F;" cx="66.437" cy="27.747" r="1.284"/>
		<path style="fill:#CFD3D4;" d="M59,83.099c0,0.552-0.448,1-1,1h-6c-0.552,0-1-0.448-1-1c0-0.552,0.448-1,1-1h6
			C58.552,82.099,59,82.546,59,83.099z"/>
		<rect x="51" y="26.125" style="fill:#CFD3D4;" width="8" height="2"/>
	</g>
</g>
<g id="Blue">
	<g>
		<g>
			<path style="fill:#FFFFFF;" d="M75,79.405C75,87,65.618,87,59.363,87h-8.726C44.382,87,35,87,35,79.405v-48.81
				C35,23,44.382,23,50.637,23h8.726C65.618,23,75,23,75,30.595V79.405z"/>
		</g>
		<g>
			<polygon style="fill:#0C333D;" points="72,79 38,79 38,31 72,30.941 			"/>
		</g>
		<g>
			<polygon style="fill:#0F6175;" points="38,79 38,31 72,30.941 			"/>
		</g>
		<g>
			<circle style="fill:#0C333D;" cx="66.437" cy="27.747" r="1.284"/>
		</g>
		<g>
			<path style="fill:#81D2EB;" d="M59,83.099c0,0.552-0.448,1-1,1h-6c-0.552,0-1-0.448-1-1c0-0.552,0.448-1,1-1h6
				C58.552,82.099,59,82.546,59,83.099z"/>
		</g>
		<g>
			<rect x="51" y="26.125" style="fill:#81D2EB;" width="8" height="2"/>
		</g>
	</g>
</g>
<g id="R-Blue" style="display:none;">
	<g style="display:inline;">
		<circle style="fill:#81D2EB;" cx="55" cy="55" r="55"/>
	</g>
	<g style="display:inline;">
		<g>
			<path style="fill:#FFFFFF;" d="M75,79.405C75,87,65.618,87,59.363,87h-8.726C44.382,87,35,87,35,79.405v-48.81
				C35,23,44.382,23,50.637,23h8.726C65.618,23,75,23,75,30.595V79.405z"/>
		</g>
		<g>
			<polygon style="fill:#0C333D;" points="72,79 38,79 38,31 72,30.941 			"/>
		</g>
		<g>
			<polygon style="fill:#0F6175;" points="38,79 38,31 72,30.941 			"/>
		</g>
		<g>
			<circle style="fill:#0C333D;" cx="66.437" cy="27.747" r="1.284"/>
		</g>
		<g>
			<path style="fill:#81D2EB;" d="M59,83.099c0,0.552-0.448,1-1,1h-6c-0.552,0-1-0.448-1-1c0-0.552,0.448-1,1-1h6
				C58.552,82.099,59,82.546,59,83.099z"/>
		</g>
		<g>
			<rect x="51" y="26.125" style="fill:#81D2EB;" width="8" height="2"/>
		</g>
	</g>
</g>
<g id="Green" style="display:none;">
	<g style="display:inline;">
		<g>
			<path style="fill:#FFFFFF;" d="M75,79.405C75,87,65.618,87,59.363,87h-8.726C44.382,87,35,87,35,79.405v-48.81
				C35,23,44.382,23,50.637,23h8.726C65.618,23,75,23,75,30.595V79.405z"/>
		</g>
		<g>
			<polygon style="fill:#0A3631;" points="72,79 38,79 38,31 72,30.941 			"/>
		</g>
		<g>
			<polygon style="fill:#14635B;" points="38,79 38,31 72,30.941 			"/>
		</g>
		<g>
			<circle style="fill:#0A3631;" cx="66.437" cy="27.747" r="1.284"/>
		</g>
		<g>
			<path style="fill:#87E0C8;" d="M59,83.099c0,0.552-0.448,1-1,1h-6c-0.552,0-1-0.448-1-1c0-0.552,0.448-1,1-1h6
				C58.552,82.099,59,82.546,59,83.099z"/>
		</g>
		<g>
			<rect x="51" y="26.125" style="fill:#87E0C8;" width="8" height="2"/>
		</g>
	</g>
</g>
<g id="R-Green" style="display:none;">
	<g style="display:inline;">
		<circle style="fill:#87E0C8;" cx="55" cy="55" r="55"/>
	</g>
	<g style="display:inline;">
		<g>
			<path style="fill:#FFFFFF;" d="M75,79.405C75,87,65.618,87,59.363,87h-8.726C44.382,87,35,87,35,79.405v-48.81
				C35,23,44.382,23,50.637,23h8.726C65.618,23,75,23,75,30.595V79.405z"/>
		</g>
		<g>
			<polygon style="fill:#0A3631;" points="72,79 38,79 38,31 72,30.941 			"/>
		</g>
		<g>
			<polygon style="fill:#14635B;" points="38,79 38,31 72,30.941 			"/>
		</g>
		<g>
			<circle style="fill:#0A3631;" cx="66.437" cy="27.747" r="1.284"/>
		</g>
		<g>
			<path style="fill:#87E0C8;" d="M59,83.099c0,0.552-0.448,1-1,1h-6c-0.552,0-1-0.448-1-1c0-0.552,0.448-1,1-1h6
				C58.552,82.099,59,82.546,59,83.099z"/>
		</g>
		<g>
			<rect x="51" y="26.125" style="fill:#87E0C8;" width="8" height="2"/>
		</g>
	</g>
</g>
<g id="Red" style="display:none;">
	<g style="display:inline;">
		<g>
			<path style="fill:#FFFFFF;" d="M75,79.405C75,87,65.618,87,59.363,87h-8.726C44.382,87,35,87,35,79.405v-48.81
				C35,23,44.382,23,50.637,23h8.726C65.618,23,75,23,75,30.595V79.405z"/>
		</g>
		<g>
			<polygon style="fill:#4A1410;" points="72,79 38,79 38,31 72,30.941 			"/>
		</g>
		<g>
			<polygon style="fill:#7D261E;" points="38,79 38,31 72,30.941 			"/>
		</g>
		<g>
			<circle style="fill:#4A1410;" cx="66.437" cy="27.747" r="1.284"/>
		</g>
		<g>
			<path style="fill:#FABBAF;" d="M59,83.099c0,0.552-0.448,1-1,1h-6c-0.552,0-1-0.448-1-1c0-0.552,0.448-1,1-1h6
				C58.552,82.099,59,82.546,59,83.099z"/>
		</g>
		<g>
			<rect x="51" y="26.125" style="fill:#FABBAF;" width="8" height="2"/>
		</g>
	</g>
</g>
<g id="R-Red" style="display:none;">
	<g style="display:inline;">
		<circle style="fill:#FABBAF;" cx="55" cy="55" r="55"/>
	</g>
	<g style="display:inline;">
		<g>
			<path style="fill:#FFFFFF;" d="M75,79.405C75,87,65.618,87,59.363,87h-8.726C44.382,87,35,87,35,79.405v-48.81
				C35,23,44.382,23,50.637,23h8.726C65.618,23,75,23,75,30.595V79.405z"/>
		</g>
		<g>
			<polygon style="fill:#4A1410;" points="72,79 38,79 38,31 72,30.941 			"/>
		</g>
		<g>
			<polygon style="fill:#7D261E;" points="38,79 38,31 72,30.941 			"/>
		</g>
		<g>
			<circle style="fill:#4A1410;" cx="66.437" cy="27.747" r="1.284"/>
		</g>
		<g>
			<path style="fill:#FABBAF;" d="M59,83.099c0,0.552-0.448,1-1,1h-6c-0.552,0-1-0.448-1-1c0-0.552,0.448-1,1-1h6
				C58.552,82.099,59,82.546,59,83.099z"/>
		</g>
		<g>
			<rect x="51" y="26.125" style="fill:#FABBAF;" width="8" height="2"/>
		</g>
	</g>
</g>
<g id="Yellow" style="display:none;">
	<g style="display:inline;">
		<g>
			<path style="fill:#FFFFFF;" d="M75,79.274c0,7.595-9.382,7.595-15.637,7.595h-8.726c-6.255,0-15.637,0-15.637-7.595v-48.81
				c0-7.595,9.382-7.595,15.637-7.595h8.726c6.255,0,15.637,0,15.637,7.595V79.274z"/>
		</g>
		<g>
			<polygon style="fill:#3D320C;" points="72,78.87 38,78.87 38,30.87 72,30.81 			"/>
		</g>
		<g>
			<polygon style="fill:#66510D;" points="38,78.87 38,30.87 72,30.81 			"/>
		</g>
		<g>
			<circle style="fill:#3D320C;" cx="66.437" cy="27.616" r="1.284"/>
		</g>
		<g>
			<path style="fill:#FFD75E;" d="M59,82.968c0,0.552-0.448,1-1,1h-6c-0.552,0-1-0.448-1-1c0-0.552,0.448-1,1-1h6
				C58.552,81.968,59,82.416,59,82.968z"/>
		</g>
		<g>
			<rect x="51" y="25.994" style="fill:#FFD75E;" width="8" height="2"/>
		</g>
	</g>
</g>
<g id="R-Yellow" style="display:none;">
	<g style="display:inline;">
		<circle style="fill:#FFD75E;" cx="55" cy="55" r="55"/>
	</g>
	<g style="display:inline;">
		<g>
			<path style="fill:#FFFFFF;" d="M75,79.405C75,87,65.618,87,59.363,87h-8.726C44.382,87,35,87,35,79.405v-48.81
				C35,23,44.382,23,50.637,23h8.726C65.618,23,75,23,75,30.595V79.405z"/>
		</g>
		<g>
			<polygon style="fill:#3D320C;" points="72,79 38,79 38,31 72,30.941 			"/>
		</g>
		<g>
			<polygon style="fill:#66510D;" points="38,79 38,31 72,30.941 			"/>
		</g>
		<g>
			<circle style="fill:#3D320C;" cx="66.437" cy="27.747" r="1.284"/>
		</g>
		<g>
			<path style="fill:#FFD75E;" d="M59,83.099c0,0.552-0.448,1-1,1h-6c-0.552,0-1-0.448-1-1c0-0.552,0.448-1,1-1h6
				C58.552,82.099,59,82.546,59,83.099z"/>
		</g>
		<g>
			<rect x="51" y="26.125" style="fill:#FFD75E;" width="8" height="2"/>
		</g>
	</g>
</g>
</svg>
