<?xml version="1.0" encoding="UTF-8"?>
<!-- Generator: Adobe Illustrator 17.0.2, SVG Export Plug-In . SVG Version: 6.00 Build 0)  -->
<!DOCTYPE svg PUBLIC "-//W3C//DTD SVG 1.1//EN" "http://www.w3.org/Graphics/SVG/1.1/DTD/svg11.dtd">
<svg version="1.1" id="Layer_1" xmlns="http://www.w3.org/2000/svg" xmlns:xlink="http://www.w3.org/1999/xlink" x="0px" y="0px" width="250px" height="250px" viewBox="0 0 250 250" xml:space="preserve">
<g>
	<g>
		<g>
			<g>
				<path fill-rule="evenodd" clip-rule="evenodd" fill="#A1BB6D" d="M62.265,8.773c0,0-12.604,2.066-26.015,8.011      c-14.274,6.33-12.523,14.488-10.039,16.955c2.482,2.465,5.455,5.416,5.455,5.416L62.265,8.773z"/>
				<path fill-rule="evenodd" clip-rule="evenodd" fill="#B5D07D" d="M50.262,11.67c-4.155,1.23-9.028,2.905-14.012,5.115      c-14.274,6.33-12.523,14.49-10.039,16.955c2.482,2.465,5.455,5.417,5.455,5.417l6.704-6.659c0,0-2.57-5.753-0.53-10.382      C40.039,17.133,50.262,11.67,50.262,11.67z"/>
			</g>
			<g>
				<path fill-rule="evenodd" clip-rule="evenodd" fill="#B84733" d="M1,8.773c0,0,2.079,12.515,8.067,25.828      c6.376,14.172,14.594,12.434,17.079,9.968c2.482-2.464,5.455-5.418,5.455-5.418L1,8.773z"/>
				<path fill-rule="evenodd" clip-rule="evenodd" fill="#D95C49" d="M3.916,20.69c1.24,4.125,2.926,8.963,5.152,13.911      c6.376,14.172,14.595,12.434,17.079,9.968c2.482-2.464,5.455-5.418,5.455-5.418l-6.705-6.658c0,0-5.796,2.553-10.457,0.527      C9.419,30.841,3.916,20.69,3.916,20.69z"/>
			</g>
			<g>
				<path fill-rule="evenodd" clip-rule="evenodd" fill="#FBBB20" d="M1,69.538c0,0,12.604-2.065,26.014-8.011      c14.274-6.329,12.523-14.489,10.04-16.955c-2.483-2.464-5.455-5.416-5.455-5.416L1,69.538z"/>
				<path fill-rule="evenodd" clip-rule="evenodd" fill="#FFCF5E" d="M13.001,66.644c4.157-1.232,9.029-2.906,14.012-5.117      c14.274-6.329,12.522-14.489,10.04-16.955c-2.483-2.464-5.455-5.417-5.455-5.417l-6.705,6.658c0,0,2.572,5.754,0.53,10.383      C23.225,61.18,13.001,66.644,13.001,66.644z"/>
			</g>
			<g>
				<path fill-rule="evenodd" clip-rule="evenodd" fill="#4F9BBD" d="M62.204,69.441c0,0-2.08-12.513-8.068-25.827      c-6.377-14.172-14.594-12.433-17.077-9.967c-2.484,2.465-5.456,5.416-5.456,5.416L62.204,69.441z"/>
				<path fill-rule="evenodd" clip-rule="evenodd" fill="#63B4DB" d="M59.288,57.528c-1.241-4.128-2.926-8.965-5.152-13.914      c-6.377-14.172-14.594-12.433-17.077-9.967c-2.484,2.465-5.458,5.416-5.458,5.416l6.707,6.657c0,0,5.796-2.553,10.457-0.525      C53.784,47.376,59.288,57.528,59.288,57.528z"/>
			</g>
		</g>
		<ellipse fill-rule="evenodd" clip-rule="evenodd" fill="#FFFFFF" cx="31.632" cy="39.155" rx="8.113" ry="8.056"/>
	</g>
</g>
</svg>