<svg width="487" height="432" viewBox="0 0 487 432" fill="none" xmlns="http://www.w3.org/2000/svg">
<path d="M239.26 382.945C231.808 402.964 311.303 327.433 307.139 322.674C302.974 317.915 293.181 312.65 293.181 312.65C293.181 312.65 265.776 336.405 244.079 337.951C222.382 339.498 202.017 330.482 188.748 318.396C175.478 306.309 155.038 275.858 145.873 281.284C136.708 286.711 147.917 299.177 159.502 314.948C169.061 327.96 117.974 292.662 120.268 301.885C122.563 311.109 131.936 311.892 148.033 328.078C162.2 342.324 121.789 320.181 111.197 317.714C100.604 315.246 133.641 334.233 140.966 348.77C144.227 355.241 91.2775 331.883 124.37 353.447C157.462 375.011 174.055 368.979 168.699 370.375C156.426 373.576 116.481 367.4 128.55 376.408C157.375 397.922 204.096 369.677 181.041 392.023C157.987 414.37 195.428 399.398 212.712 374.1C219.233 364.556 191.754 421.586 207.589 405.99C242.592 371.517 257.224 334.687 239.26 382.945Z" fill="#C2A6F1"/>
<path d="M239.26 382.945C231.808 402.964 311.303 327.433 307.139 322.674C302.974 317.915 293.181 312.65 293.181 312.65C293.181 312.65 265.776 336.405 244.079 337.951C222.382 339.498 202.017 330.482 188.748 318.396C175.478 306.309 155.038 275.858 145.873 281.284C136.708 286.711 147.917 299.177 159.502 314.948C169.061 327.96 117.974 292.662 120.268 301.885C122.563 311.109 131.936 311.892 148.033 328.078C162.2 342.324 121.789 320.181 111.197 317.714C100.604 315.246 133.641 334.233 140.966 348.77C144.227 355.241 91.2775 331.883 124.37 353.447C157.462 375.011 174.055 368.979 168.699 370.375C156.426 373.576 116.481 367.4 128.55 376.408C157.375 397.922 204.096 369.677 181.041 392.023C157.987 414.37 195.428 399.398 212.712 374.1C219.233 364.556 191.754 421.586 207.589 405.99C242.592 371.517 257.224 334.687 239.26 382.945Z" fill="url(#paint0_radial_121_62471)"/>
<path d="M239.26 382.945C231.808 402.964 311.303 327.433 307.139 322.674C302.974 317.915 293.181 312.65 293.181 312.65C293.181 312.65 265.776 336.405 244.079 337.951C222.382 339.498 202.017 330.482 188.748 318.396C175.478 306.309 155.038 275.858 145.873 281.284C136.708 286.711 147.917 299.177 159.502 314.948C169.061 327.96 117.974 292.662 120.268 301.885C122.563 311.109 131.936 311.892 148.033 328.078C162.2 342.324 121.789 320.181 111.197 317.714C100.604 315.246 133.641 334.233 140.966 348.77C144.227 355.241 91.2775 331.883 124.37 353.447C157.462 375.011 174.055 368.979 168.699 370.375C156.426 373.576 116.481 367.4 128.55 376.408C157.375 397.922 204.096 369.677 181.041 392.023C157.987 414.37 195.428 399.398 212.712 374.1C219.233 364.556 191.754 421.586 207.589 405.99C242.592 371.517 257.224 334.687 239.26 382.945Z" fill="url(#paint1_linear_121_62471)"/>
<path d="M239.26 382.945C231.808 402.964 311.303 327.433 307.139 322.674C302.974 317.915 293.181 312.65 293.181 312.65C293.181 312.65 265.776 336.405 244.079 337.951C222.382 339.498 202.017 330.482 188.748 318.396C175.478 306.309 155.038 275.858 145.873 281.284C136.708 286.711 147.917 299.177 159.502 314.948C169.061 327.96 117.974 292.662 120.268 301.885C122.563 311.109 131.936 311.892 148.033 328.078C162.2 342.324 121.789 320.181 111.197 317.714C100.604 315.246 133.641 334.233 140.966 348.77C144.227 355.241 91.2775 331.883 124.37 353.447C157.462 375.011 174.055 368.979 168.699 370.375C156.426 373.576 116.481 367.4 128.55 376.408C157.375 397.922 204.096 369.677 181.041 392.023C157.987 414.37 195.428 399.398 212.712 374.1C219.233 364.556 191.754 421.586 207.589 405.99C242.592 371.517 257.224 334.687 239.26 382.945Z" fill="url(#paint2_linear_121_62471)"/>
<path d="M239.26 382.945C231.808 402.964 311.303 327.433 307.139 322.674C302.974 317.915 293.181 312.65 293.181 312.65C293.181 312.65 265.776 336.405 244.079 337.951C222.382 339.498 202.017 330.482 188.748 318.396C175.478 306.309 155.038 275.858 145.873 281.284C136.708 286.711 147.917 299.177 159.502 314.948C169.061 327.96 117.974 292.662 120.268 301.885C122.563 311.109 131.936 311.892 148.033 328.078C162.2 342.324 121.789 320.181 111.197 317.714C100.604 315.246 133.641 334.233 140.966 348.77C144.227 355.241 91.2775 331.883 124.37 353.447C157.462 375.011 174.055 368.979 168.699 370.375C156.426 373.576 116.481 367.4 128.55 376.408C157.375 397.922 204.096 369.677 181.041 392.023C157.987 414.37 195.428 399.398 212.712 374.1C219.233 364.556 191.754 421.586 207.589 405.99C242.592 371.517 257.224 334.687 239.26 382.945Z" fill="url(#paint3_linear_121_62471)"/>
<path d="M239.26 382.945C231.808 402.964 311.303 327.433 307.139 322.674C302.974 317.915 293.181 312.65 293.181 312.65C293.181 312.65 265.776 336.405 244.079 337.951C222.382 339.498 202.017 330.482 188.748 318.396C175.478 306.309 155.038 275.858 145.873 281.284C136.708 286.711 147.917 299.177 159.502 314.948C169.061 327.96 117.974 292.662 120.268 301.885C122.563 311.109 131.936 311.892 148.033 328.078C162.2 342.324 121.789 320.181 111.197 317.714C100.604 315.246 133.641 334.233 140.966 348.77C144.227 355.241 91.2775 331.883 124.37 353.447C157.462 375.011 174.055 368.979 168.699 370.375C156.426 373.576 116.481 367.4 128.55 376.408C157.375 397.922 204.096 369.677 181.041 392.023C157.987 414.37 195.428 399.398 212.712 374.1C219.233 364.556 191.754 421.586 207.589 405.99C242.592 371.517 257.224 334.687 239.26 382.945Z" fill="url(#paint4_radial_121_62471)"/>
<path d="M239.26 382.945C231.808 402.964 311.303 327.433 307.139 322.674C302.974 317.915 293.181 312.65 293.181 312.65C293.181 312.65 265.776 336.405 244.079 337.951C222.382 339.498 202.017 330.482 188.748 318.396C175.478 306.309 155.038 275.858 145.873 281.284C136.708 286.711 147.917 299.177 159.502 314.948C169.061 327.96 117.974 292.662 120.268 301.885C122.563 311.109 131.936 311.892 148.033 328.078C162.2 342.324 121.789 320.181 111.197 317.714C100.604 315.246 133.641 334.233 140.966 348.77C144.227 355.241 91.2775 331.883 124.37 353.447C157.462 375.011 174.055 368.979 168.699 370.375C156.426 373.576 116.481 367.4 128.55 376.408C157.375 397.922 204.096 369.677 181.041 392.023C157.987 414.37 195.428 399.398 212.712 374.1C219.233 364.556 191.754 421.586 207.589 405.99C242.592 371.517 257.224 334.687 239.26 382.945Z" fill="url(#paint5_radial_121_62471)"/>
<path d="M239.26 382.945C231.808 402.964 311.303 327.433 307.139 322.674C302.974 317.915 293.181 312.65 293.181 312.65C293.181 312.65 265.776 336.405 244.079 337.951C222.382 339.498 202.017 330.482 188.748 318.396C175.478 306.309 155.038 275.858 145.873 281.284C136.708 286.711 147.917 299.177 159.502 314.948C169.061 327.96 117.974 292.662 120.268 301.885C122.563 311.109 131.936 311.892 148.033 328.078C162.2 342.324 121.789 320.181 111.197 317.714C100.604 315.246 133.641 334.233 140.966 348.77C144.227 355.241 91.2775 331.883 124.37 353.447C157.462 375.011 174.055 368.979 168.699 370.375C156.426 373.576 116.481 367.4 128.55 376.408C157.375 397.922 204.096 369.677 181.041 392.023C157.987 414.37 195.428 399.398 212.712 374.1C219.233 364.556 191.754 421.586 207.589 405.99C242.592 371.517 257.224 334.687 239.26 382.945Z" fill="url(#paint6_radial_121_62471)"/>
<path d="M239.26 382.945C231.808 402.964 311.303 327.433 307.139 322.674C302.974 317.915 293.181 312.65 293.181 312.65C293.181 312.65 265.776 336.405 244.079 337.951C222.382 339.498 202.017 330.482 188.748 318.396C175.478 306.309 155.038 275.858 145.873 281.284C136.708 286.711 147.917 299.177 159.502 314.948C169.061 327.96 117.974 292.662 120.268 301.885C122.563 311.109 131.936 311.892 148.033 328.078C162.2 342.324 121.789 320.181 111.197 317.714C100.604 315.246 133.641 334.233 140.966 348.77C144.227 355.241 91.2775 331.883 124.37 353.447C157.462 375.011 174.055 368.979 168.699 370.375C156.426 373.576 116.481 367.4 128.55 376.408C157.375 397.922 204.096 369.677 181.041 392.023C157.987 414.37 195.428 399.398 212.712 374.1C219.233 364.556 191.754 421.586 207.589 405.99C242.592 371.517 257.224 334.687 239.26 382.945Z" fill="url(#paint7_linear_121_62471)"/>
<path d="M154.373 73.3122L224.115 80.6784C224.115 80.6784 228.445 44.1933 222.425 27.3575C217.086 12.4225 204.954 -1.14954 187.775 0.0772596C171.404 1.24638 162.348 17.6937 157.532 29.2599C151.468 43.8247 154.373 73.3122 154.373 73.3122Z" fill="#C2A6F1"/>
<path d="M154.373 73.3122L224.115 80.6784C224.115 80.6784 228.445 44.1933 222.425 27.3575C217.086 12.4225 204.954 -1.14954 187.775 0.0772596C171.404 1.24638 162.348 17.6937 157.532 29.2599C151.468 43.8247 154.373 73.3122 154.373 73.3122Z" fill="url(#paint8_radial_121_62471)"/>
<path d="M154.373 73.3122L224.115 80.6784C224.115 80.6784 228.445 44.1933 222.425 27.3575C217.086 12.4225 204.954 -1.14954 187.775 0.0772596C171.404 1.24638 162.348 17.6937 157.532 29.2599C151.468 43.8247 154.373 73.3122 154.373 73.3122Z" fill="url(#paint9_linear_121_62471)"/>
<path d="M154.373 73.3122L224.115 80.6784C224.115 80.6784 228.445 44.1933 222.425 27.3575C217.086 12.4225 204.954 -1.14954 187.775 0.0772596C171.404 1.24638 162.348 17.6937 157.532 29.2599C151.468 43.8247 154.373 73.3122 154.373 73.3122Z" fill="url(#paint10_linear_121_62471)"/>
<path d="M154.373 73.3122L224.115 80.6784C224.115 80.6784 228.445 44.1933 222.425 27.3575C217.086 12.4225 204.954 -1.14954 187.775 0.0772596C171.404 1.24638 162.348 17.6937 157.532 29.2599C151.468 43.8247 154.373 73.3122 154.373 73.3122Z" fill="url(#paint11_linear_121_62471)"/>
<path d="M154.373 73.3122L224.115 80.6784C224.115 80.6784 228.445 44.1933 222.425 27.3575C217.086 12.4225 204.954 -1.14954 187.775 0.0772596C171.404 1.24638 162.348 17.6937 157.532 29.2599C151.468 43.8247 154.373 73.3122 154.373 73.3122Z" fill="url(#paint12_radial_121_62471)"/>
<path d="M154.373 73.3122L224.115 80.6784C224.115 80.6784 228.445 44.1933 222.425 27.3575C217.086 12.4225 204.954 -1.14954 187.775 0.0772596C171.404 1.24638 162.348 17.6937 157.532 29.2599C151.468 43.8247 154.373 73.3122 154.373 73.3122Z" fill="url(#paint13_radial_121_62471)"/>
<path d="M154.373 73.3122L224.115 80.6784C224.115 80.6784 228.445 44.1933 222.425 27.3575C217.086 12.4225 204.954 -1.14954 187.775 0.0772596C171.404 1.24638 162.348 17.6937 157.532 29.2599C151.468 43.8247 154.373 73.3122 154.373 73.3122Z" fill="url(#paint14_radial_121_62471)"/>
<path d="M154.373 73.3122L224.115 80.6784C224.115 80.6784 228.445 44.1933 222.425 27.3575C217.086 12.4225 204.954 -1.14954 187.775 0.0772596C171.404 1.24638 162.348 17.6937 157.532 29.2599C151.468 43.8247 154.373 73.3122 154.373 73.3122Z" fill="url(#paint15_linear_121_62471)"/>
<path d="M218.216 39.489C216.237 22.6213 205.888 7.04168 189.592 7.31808C172.749 7.60376 168.698 27.162 169.12 40.1157C169.963 66.0386 201.074 124.373 201.074 124.373L211.578 91.362C211.578 91.362 220.937 62.6847 218.216 39.489Z" fill="#FCBDB0" stroke="black" stroke-width="4.1799"/>
<ellipse cx="212.393" cy="63.6347" rx="6.27485" ry="7.74775" transform="rotate(-42.1904 212.393 63.6347)" fill="#E1D49D"/>
<path d="M265.596 85.2528C289.79 107.635 278.983 180.568 278.983 180.568L253.28 168.252C253.28 168.252 259.305 123.619 246.855 112.027C236.347 102.245 211.429 110.865 211.429 110.865L189.553 79.3693C189.553 79.3693 244.964 66.1662 265.596 85.2528Z" fill="#C2A6F1"/>
<path d="M265.596 85.2528C289.79 107.635 278.983 180.568 278.983 180.568L253.28 168.252C253.28 168.252 259.305 123.619 246.855 112.027C236.347 102.245 211.429 110.865 211.429 110.865L189.553 79.3693C189.553 79.3693 244.964 66.1662 265.596 85.2528Z" fill="url(#paint16_radial_121_62471)"/>
<path d="M265.596 85.2528C289.79 107.635 278.983 180.568 278.983 180.568L253.28 168.252C253.28 168.252 259.305 123.619 246.855 112.027C236.347 102.245 211.429 110.865 211.429 110.865L189.553 79.3693C189.553 79.3693 244.964 66.1662 265.596 85.2528Z" fill="url(#paint17_linear_121_62471)"/>
<path d="M265.596 85.2528C289.79 107.635 278.983 180.568 278.983 180.568L253.28 168.252C253.28 168.252 259.305 123.619 246.855 112.027C236.347 102.245 211.429 110.865 211.429 110.865L189.553 79.3693C189.553 79.3693 244.964 66.1662 265.596 85.2528Z" fill="url(#paint18_linear_121_62471)"/>
<path d="M265.596 85.2528C289.79 107.635 278.983 180.568 278.983 180.568L253.28 168.252C253.28 168.252 259.305 123.619 246.855 112.027C236.347 102.245 211.429 110.865 211.429 110.865L189.553 79.3693C189.553 79.3693 244.964 66.1662 265.596 85.2528Z" fill="url(#paint19_linear_121_62471)"/>
<path d="M265.596 85.2528C289.79 107.635 278.983 180.568 278.983 180.568L253.28 168.252C253.28 168.252 259.305 123.619 246.855 112.027C236.347 102.245 211.429 110.865 211.429 110.865L189.553 79.3693C189.553 79.3693 244.964 66.1662 265.596 85.2528Z" fill="url(#paint20_radial_121_62471)"/>
<path d="M265.596 85.2528C289.79 107.635 278.983 180.568 278.983 180.568L253.28 168.252C253.28 168.252 259.305 123.619 246.855 112.027C236.347 102.245 211.429 110.865 211.429 110.865L189.553 79.3693C189.553 79.3693 244.964 66.1662 265.596 85.2528Z" fill="url(#paint21_radial_121_62471)"/>
<path d="M265.596 85.2528C289.79 107.635 278.983 180.568 278.983 180.568L253.28 168.252C253.28 168.252 259.305 123.619 246.855 112.027C236.347 102.245 211.429 110.865 211.429 110.865L189.553 79.3693C189.553 79.3693 244.964 66.1662 265.596 85.2528Z" fill="url(#paint22_radial_121_62471)"/>
<path d="M265.596 85.2528C289.79 107.635 278.983 180.568 278.983 180.568L253.28 168.252C253.28 168.252 259.305 123.619 246.855 112.027C236.347 102.245 211.429 110.865 211.429 110.865L189.553 79.3693C189.553 79.3693 244.964 66.1662 265.596 85.2528Z" fill="url(#paint23_linear_121_62471)"/>
<ellipse cx="195.782" cy="80.1319" rx="24.1496" ry="36.3972" transform="rotate(-55.7182 195.782 80.1319)" fill="#C2A6F1"/>
<ellipse cx="195.782" cy="80.1319" rx="24.1496" ry="36.3972" transform="rotate(-55.7182 195.782 80.1319)" fill="url(#paint24_radial_121_62471)"/>
<ellipse cx="195.782" cy="80.1319" rx="24.1496" ry="36.3972" transform="rotate(-55.7182 195.782 80.1319)" fill="url(#paint25_linear_121_62471)"/>
<ellipse cx="195.782" cy="80.1319" rx="24.1496" ry="36.3972" transform="rotate(-55.7182 195.782 80.1319)" fill="url(#paint26_linear_121_62471)"/>
<ellipse cx="195.782" cy="80.1319" rx="24.1496" ry="36.3972" transform="rotate(-55.7182 195.782 80.1319)" fill="url(#paint27_linear_121_62471)"/>
<ellipse cx="195.782" cy="80.1319" rx="24.1496" ry="36.3972" transform="rotate(-55.7182 195.782 80.1319)" fill="url(#paint28_radial_121_62471)"/>
<ellipse cx="195.782" cy="80.1319" rx="24.1496" ry="36.3972" transform="rotate(-55.7182 195.782 80.1319)" fill="url(#paint29_radial_121_62471)"/>
<ellipse cx="195.782" cy="80.1319" rx="24.1496" ry="36.3972" transform="rotate(-55.7182 195.782 80.1319)" fill="url(#paint30_radial_121_62471)"/>
<ellipse cx="195.782" cy="80.1319" rx="24.1496" ry="36.3972" transform="rotate(-55.7182 195.782 80.1319)" fill="url(#paint31_linear_121_62471)"/>
<ellipse cx="193.9" cy="85.1163" rx="24.1496" ry="36.3972" transform="rotate(-55.7182 193.9 85.1163)" fill="#3A0809"/>
<path d="M64.364 189.513C75.9969 211.015 125.099 209.077 125.099 209.077L145.178 254.255C145.178 254.255 62.9193 247.451 36.74 214.961C29.821 206.375 28.5923 197.872 30.1737 186.623C36.0556 144.781 92.8005 127.292 92.8005 127.292L108.208 139.734C108.208 139.734 50.813 164.466 64.364 189.513Z" fill="#C2A6F1"/>
<path d="M64.364 189.513C75.9969 211.015 125.099 209.077 125.099 209.077L145.178 254.255C145.178 254.255 62.9193 247.451 36.74 214.961C29.821 206.375 28.5923 197.872 30.1737 186.623C36.0556 144.781 92.8005 127.292 92.8005 127.292L108.208 139.734C108.208 139.734 50.813 164.466 64.364 189.513Z" fill="url(#paint32_radial_121_62471)"/>
<path d="M64.364 189.513C75.9969 211.015 125.099 209.077 125.099 209.077L145.178 254.255C145.178 254.255 62.9193 247.451 36.74 214.961C29.821 206.375 28.5923 197.872 30.1737 186.623C36.0556 144.781 92.8005 127.292 92.8005 127.292L108.208 139.734C108.208 139.734 50.813 164.466 64.364 189.513Z" fill="url(#paint33_linear_121_62471)"/>
<path d="M64.364 189.513C75.9969 211.015 125.099 209.077 125.099 209.077L145.178 254.255C145.178 254.255 62.9193 247.451 36.74 214.961C29.821 206.375 28.5923 197.872 30.1737 186.623C36.0556 144.781 92.8005 127.292 92.8005 127.292L108.208 139.734C108.208 139.734 50.813 164.466 64.364 189.513Z" fill="url(#paint34_linear_121_62471)"/>
<path d="M64.364 189.513C75.9969 211.015 125.099 209.077 125.099 209.077L145.178 254.255C145.178 254.255 62.9193 247.451 36.74 214.961C29.821 206.375 28.5923 197.872 30.1737 186.623C36.0556 144.781 92.8005 127.292 92.8005 127.292L108.208 139.734C108.208 139.734 50.813 164.466 64.364 189.513Z" fill="url(#paint35_linear_121_62471)"/>
<path d="M64.364 189.513C75.9969 211.015 125.099 209.077 125.099 209.077L145.178 254.255C145.178 254.255 62.9193 247.451 36.74 214.961C29.821 206.375 28.5923 197.872 30.1737 186.623C36.0556 144.781 92.8005 127.292 92.8005 127.292L108.208 139.734C108.208 139.734 50.813 164.466 64.364 189.513Z" fill="url(#paint36_radial_121_62471)"/>
<path d="M64.364 189.513C75.9969 211.015 125.099 209.077 125.099 209.077L145.178 254.255C145.178 254.255 62.9193 247.451 36.74 214.961C29.821 206.375 28.5923 197.872 30.1737 186.623C36.0556 144.781 92.8005 127.292 92.8005 127.292L108.208 139.734C108.208 139.734 50.813 164.466 64.364 189.513Z" fill="url(#paint37_radial_121_62471)"/>
<path d="M64.364 189.513C75.9969 211.015 125.099 209.077 125.099 209.077L145.178 254.255C145.178 254.255 62.9193 247.451 36.74 214.961C29.821 206.375 28.5923 197.872 30.1737 186.623C36.0556 144.781 92.8005 127.292 92.8005 127.292L108.208 139.734C108.208 139.734 50.813 164.466 64.364 189.513Z" fill="url(#paint38_radial_121_62471)"/>
<path d="M64.364 189.513C75.9969 211.015 125.099 209.077 125.099 209.077L145.178 254.255C145.178 254.255 62.9193 247.451 36.74 214.961C29.821 206.375 28.5923 197.872 30.1737 186.623C36.0556 144.781 92.8005 127.292 92.8005 127.292L108.208 139.734C108.208 139.734 50.813 164.466 64.364 189.513Z" fill="url(#paint39_linear_121_62471)"/>
<path d="M399.105 356.825C388.647 345.874 352.201 342.723 335.819 319.059C319.437 295.395 329.904 190.091 359.582 194.465C389.259 198.84 397.996 225.92 405.337 253.845C412.678 281.769 405.726 288.105 394.047 314.773C382.367 341.441 463.225 318.627 460.62 347.476C459.804 356.516 458.29 362.604 451.849 369C443.357 377.435 433.716 379.084 422.078 376.285C410.646 373.537 409.563 367.776 399.105 356.825Z" fill="#C2A6F1"/>
<path d="M399.105 356.825C388.647 345.874 352.201 342.723 335.819 319.059C319.437 295.395 329.904 190.091 359.582 194.465C389.259 198.84 397.996 225.92 405.337 253.845C412.678 281.769 405.726 288.105 394.047 314.773C382.367 341.441 463.225 318.627 460.62 347.476C459.804 356.516 458.29 362.604 451.849 369C443.357 377.435 433.716 379.084 422.078 376.285C410.646 373.537 409.563 367.776 399.105 356.825Z" fill="url(#paint40_radial_121_62471)"/>
<path d="M399.105 356.825C388.647 345.874 352.201 342.723 335.819 319.059C319.437 295.395 329.904 190.091 359.582 194.465C389.259 198.84 397.996 225.92 405.337 253.845C412.678 281.769 405.726 288.105 394.047 314.773C382.367 341.441 463.225 318.627 460.62 347.476C459.804 356.516 458.29 362.604 451.849 369C443.357 377.435 433.716 379.084 422.078 376.285C410.646 373.537 409.563 367.776 399.105 356.825Z" fill="url(#paint41_linear_121_62471)"/>
<path d="M399.105 356.825C388.647 345.874 352.201 342.723 335.819 319.059C319.437 295.395 329.904 190.091 359.582 194.465C389.259 198.84 397.996 225.92 405.337 253.845C412.678 281.769 405.726 288.105 394.047 314.773C382.367 341.441 463.225 318.627 460.62 347.476C459.804 356.516 458.29 362.604 451.849 369C443.357 377.435 433.716 379.084 422.078 376.285C410.646 373.537 409.563 367.776 399.105 356.825Z" fill="url(#paint42_linear_121_62471)"/>
<path d="M399.105 356.825C388.647 345.874 352.201 342.723 335.819 319.059C319.437 295.395 329.904 190.091 359.582 194.465C389.259 198.84 397.996 225.92 405.337 253.845C412.678 281.769 405.726 288.105 394.047 314.773C382.367 341.441 463.225 318.627 460.62 347.476C459.804 356.516 458.29 362.604 451.849 369C443.357 377.435 433.716 379.084 422.078 376.285C410.646 373.537 409.563 367.776 399.105 356.825Z" fill="url(#paint43_linear_121_62471)"/>
<path d="M399.105 356.825C388.647 345.874 352.201 342.723 335.819 319.059C319.437 295.395 329.904 190.091 359.582 194.465C389.259 198.84 397.996 225.92 405.337 253.845C412.678 281.769 405.726 288.105 394.047 314.773C382.367 341.441 463.225 318.627 460.62 347.476C459.804 356.516 458.29 362.604 451.849 369C443.357 377.435 433.716 379.084 422.078 376.285C410.646 373.537 409.563 367.776 399.105 356.825Z" fill="url(#paint44_radial_121_62471)"/>
<path d="M399.105 356.825C388.647 345.874 352.201 342.723 335.819 319.059C319.437 295.395 329.904 190.091 359.582 194.465C389.259 198.84 397.996 225.92 405.337 253.845C412.678 281.769 405.726 288.105 394.047 314.773C382.367 341.441 463.225 318.627 460.62 347.476C459.804 356.516 458.29 362.604 451.849 369C443.357 377.435 433.716 379.084 422.078 376.285C410.646 373.537 409.563 367.776 399.105 356.825Z" fill="url(#paint45_radial_121_62471)"/>
<path d="M399.105 356.825C388.647 345.874 352.201 342.723 335.819 319.059C319.437 295.395 329.904 190.091 359.582 194.465C389.259 198.84 397.996 225.92 405.337 253.845C412.678 281.769 405.726 288.105 394.047 314.773C382.367 341.441 463.225 318.627 460.62 347.476C459.804 356.516 458.29 362.604 451.849 369C443.357 377.435 433.716 379.084 422.078 376.285C410.646 373.537 409.563 367.776 399.105 356.825Z" fill="url(#paint46_radial_121_62471)"/>
<path d="M399.105 356.825C388.647 345.874 352.201 342.723 335.819 319.059C319.437 295.395 329.904 190.091 359.582 194.465C389.259 198.84 397.996 225.92 405.337 253.845C412.678 281.769 405.726 288.105 394.047 314.773C382.367 341.441 463.225 318.627 460.62 347.476C459.804 356.516 458.29 362.604 451.849 369C443.357 377.435 433.716 379.084 422.078 376.285C410.646 373.537 409.563 367.776 399.105 356.825Z" fill="url(#paint47_linear_121_62471)"/>
<path d="M455.687 364.656C455.687 364.656 450.163 361.114 445.132 359.309C440.543 357.662 435.945 356.877 431.244 355.641" stroke="black" stroke-width="4.1799"/>
<path d="M273.917 169.337L272.93 171.582L272.929 171.581C272.928 171.581 272.926 171.58 272.925 171.579C272.922 171.578 272.917 171.576 272.911 171.573C272.899 171.568 272.88 171.559 272.856 171.549C272.809 171.528 272.739 171.498 272.647 171.457C272.465 171.376 272.198 171.257 271.854 171.102C271.165 170.791 270.17 170.338 268.937 169.764C266.469 168.616 263.043 166.982 259.207 165.039C251.573 161.173 242.171 156.01 235.488 150.966L233.702 149.617L234.882 147.716C237.25 143.895 238.924 140.775 240.423 135.965C242.45 129.461 241.11 121.448 236.84 113.047C232.589 104.683 225.561 96.2061 216.725 88.9766C198.998 74.4739 174.542 65.4025 151.533 71.6787C134.065 76.4435 126.528 81.7626 120.985 85.7471C118.198 87.7507 115.615 89.6576 112.484 90.9033C109.272 92.1816 105.625 92.722 100.628 92.3789C88.0601 91.516 80.0278 87.968 71.5234 84.9561C63.093 81.9704 53.8074 79.3336 38.1777 79.8438C24.8447 80.2789 14.4699 82.5011 7.11133 89.9824C4.84551 92.2861 3.21847 96.0752 2.66113 100.98C2.10784 105.851 2.63767 111.624 4.47363 117.634C8.14088 129.639 16.9574 142.393 32.2988 150.567C34.3986 151.686 37.6304 152.763 41.7969 154.049C45.8732 155.307 50.7138 156.73 55.7158 158.521C65.6973 162.094 76.7333 167.266 84.5869 176.109C89.1827 181.284 93.3269 188.918 96.2783 195.095C97.7684 198.213 98.9815 201.019 99.8223 203.046C100.243 204.06 100.571 204.881 100.795 205.45C100.907 205.735 100.993 205.957 101.052 206.109C101.059 206.129 101.067 206.148 101.073 206.166C101.099 206.211 101.129 206.265 101.165 206.328C101.284 206.539 101.461 206.853 101.69 207.257C102.15 208.065 102.82 209.241 103.66 210.706C105.341 213.636 107.705 217.722 110.435 222.347C115.901 231.609 122.808 242.982 128.632 251.553C148.278 280.465 164.481 303.974 184.457 320.318C209.375 340.706 231.119 343.308 262.712 345.055C281.873 346.114 307.711 341.265 330.078 332.568C341.244 328.227 351.447 322.964 359.465 317.08C367.519 311.169 373.158 304.787 375.55 298.277C378.636 289.877 380.093 284.449 380.369 279.033C380.646 273.598 379.745 268.001 377.794 259.217C373.911 241.737 371.664 235.595 363.377 220.195L367.679 217.839C371.66 224.974 376.526 227.001 383.363 230.251C390.321 233.558 398.64 237.888 408.099 249.84C417.329 261.502 426.271 270.807 434.392 277.005C442.606 283.274 449.557 286.039 454.916 285.46C457.142 285.219 458.594 284.081 459.682 282.083C460.844 279.947 461.513 276.926 461.9 273.29C462.285 269.678 462.365 265.787 462.521 261.938C462.672 258.19 462.895 254.417 463.631 251.394C465.091 245.399 468.31 240.437 471.635 235.864C475.037 231.185 478.454 227.016 480.954 222.172C482.031 220.086 482.845 216.474 483.034 212.255C483.221 208.082 482.781 203.623 481.595 199.933C480.388 196.18 478.559 193.653 476.292 192.604C474.148 191.613 470.841 191.603 465.787 194.681L464.497 195.467L463.214 194.668C459.185 192.157 456.245 191.335 454.15 191.416C452.203 191.492 450.705 192.358 449.439 194.04C448.106 195.812 447.07 198.465 446.331 201.891C445.599 205.284 445.2 209.244 445.015 213.48C444.644 221.974 445.145 231.237 445.403 238.816C445.531 242.561 445.601 245.944 445.454 248.537C445.381 249.827 445.25 251.028 445.009 252.025C444.804 252.875 444.387 254.194 443.29 255.006C441.338 256.45 439.072 255.622 437.676 254.854C436.104 253.988 434.379 252.539 432.589 250.762C428.973 247.172 424.59 241.734 419.917 235.272C410.55 222.32 399.769 204.915 391.249 189.044C386.273 179.774 374.351 171.152 361.419 168.279C348.633 165.439 335.397 168.299 327.074 181.188L327.045 181.232L327.014 181.277L327.013 181.276V181.278C327.012 181.28 327.01 181.283 327.007 181.287C327.001 181.295 326.992 181.308 326.979 181.326C326.954 181.362 326.916 181.417 326.864 181.491L326.835 181.532L326.805 181.572C325.434 183.378 323.29 184.196 321.165 184.541C319.004 184.892 316.476 184.82 313.826 184.507C308.511 183.878 302.176 182.208 296.174 180.307C290.145 178.397 284.339 176.216 280.047 174.518C277.899 173.667 276.124 172.936 274.886 172.416C274.266 172.156 273.78 171.948 273.448 171.806C273.282 171.734 273.154 171.679 273.067 171.642C273.024 171.623 272.991 171.608 272.969 171.599C272.957 171.594 272.948 171.59 272.942 171.587C272.939 171.586 272.937 171.585 272.936 171.584L272.934 171.583L273.917 169.337ZM273.917 169.337L272.933 171.583L272.931 171.582L273.917 169.337Z" fill="#C2A6F1"/>
<path d="M273.917 169.337L272.93 171.582L272.929 171.581C272.928 171.581 272.926 171.58 272.925 171.579C272.922 171.578 272.917 171.576 272.911 171.573C272.899 171.568 272.88 171.559 272.856 171.549C272.809 171.528 272.739 171.498 272.647 171.457C272.465 171.376 272.198 171.257 271.854 171.102C271.165 170.791 270.17 170.338 268.937 169.764C266.469 168.616 263.043 166.982 259.207 165.039C251.573 161.173 242.171 156.01 235.488 150.966L233.702 149.617L234.882 147.716C237.25 143.895 238.924 140.775 240.423 135.965C242.45 129.461 241.11 121.448 236.84 113.047C232.589 104.683 225.561 96.2061 216.725 88.9766C198.998 74.4739 174.542 65.4025 151.533 71.6787C134.065 76.4435 126.528 81.7626 120.985 85.7471C118.198 87.7507 115.615 89.6576 112.484 90.9033C109.272 92.1816 105.625 92.722 100.628 92.3789C88.0601 91.516 80.0278 87.968 71.5234 84.9561C63.093 81.9704 53.8074 79.3336 38.1777 79.8438C24.8447 80.2789 14.4699 82.5011 7.11133 89.9824C4.84551 92.2861 3.21847 96.0752 2.66113 100.98C2.10784 105.851 2.63767 111.624 4.47363 117.634C8.14088 129.639 16.9574 142.393 32.2988 150.567C34.3986 151.686 37.6304 152.763 41.7969 154.049C45.8732 155.307 50.7138 156.73 55.7158 158.521C65.6973 162.094 76.7333 167.266 84.5869 176.109C89.1827 181.284 93.3269 188.918 96.2783 195.095C97.7684 198.213 98.9815 201.019 99.8223 203.046C100.243 204.06 100.571 204.881 100.795 205.45C100.907 205.735 100.993 205.957 101.052 206.109C101.059 206.129 101.067 206.148 101.073 206.166C101.099 206.211 101.129 206.265 101.165 206.328C101.284 206.539 101.461 206.853 101.69 207.257C102.15 208.065 102.82 209.241 103.66 210.706C105.341 213.636 107.705 217.722 110.435 222.347C115.901 231.609 122.808 242.982 128.632 251.553C148.278 280.465 164.481 303.974 184.457 320.318C209.375 340.706 231.119 343.308 262.712 345.055C281.873 346.114 307.711 341.265 330.078 332.568C341.244 328.227 351.447 322.964 359.465 317.08C367.519 311.169 373.158 304.787 375.55 298.277C378.636 289.877 380.093 284.449 380.369 279.033C380.646 273.598 379.745 268.001 377.794 259.217C373.911 241.737 371.664 235.595 363.377 220.195L367.679 217.839C371.66 224.974 376.526 227.001 383.363 230.251C390.321 233.558 398.64 237.888 408.099 249.84C417.329 261.502 426.271 270.807 434.392 277.005C442.606 283.274 449.557 286.039 454.916 285.46C457.142 285.219 458.594 284.081 459.682 282.083C460.844 279.947 461.513 276.926 461.9 273.29C462.285 269.678 462.365 265.787 462.521 261.938C462.672 258.19 462.895 254.417 463.631 251.394C465.091 245.399 468.31 240.437 471.635 235.864C475.037 231.185 478.454 227.016 480.954 222.172C482.031 220.086 482.845 216.474 483.034 212.255C483.221 208.082 482.781 203.623 481.595 199.933C480.388 196.18 478.559 193.653 476.292 192.604C474.148 191.613 470.841 191.603 465.787 194.681L464.497 195.467L463.214 194.668C459.185 192.157 456.245 191.335 454.15 191.416C452.203 191.492 450.705 192.358 449.439 194.04C448.106 195.812 447.07 198.465 446.331 201.891C445.599 205.284 445.2 209.244 445.015 213.48C444.644 221.974 445.145 231.237 445.403 238.816C445.531 242.561 445.601 245.944 445.454 248.537C445.381 249.827 445.25 251.028 445.009 252.025C444.804 252.875 444.387 254.194 443.29 255.006C441.338 256.45 439.072 255.622 437.676 254.854C436.104 253.988 434.379 252.539 432.589 250.762C428.973 247.172 424.59 241.734 419.917 235.272C410.55 222.32 399.769 204.915 391.249 189.044C386.273 179.774 374.351 171.152 361.419 168.279C348.633 165.439 335.397 168.299 327.074 181.188L327.045 181.232L327.014 181.277L327.013 181.276V181.278C327.012 181.28 327.01 181.283 327.007 181.287C327.001 181.295 326.992 181.308 326.979 181.326C326.954 181.362 326.916 181.417 326.864 181.491L326.835 181.532L326.805 181.572C325.434 183.378 323.29 184.196 321.165 184.541C319.004 184.892 316.476 184.82 313.826 184.507C308.511 183.878 302.176 182.208 296.174 180.307C290.145 178.397 284.339 176.216 280.047 174.518C277.899 173.667 276.124 172.936 274.886 172.416C274.266 172.156 273.78 171.948 273.448 171.806C273.282 171.734 273.154 171.679 273.067 171.642C273.024 171.623 272.991 171.608 272.969 171.599C272.957 171.594 272.948 171.59 272.942 171.587C272.939 171.586 272.937 171.585 272.936 171.584L272.934 171.583L273.917 169.337ZM273.917 169.337L272.933 171.583L272.931 171.582L273.917 169.337Z" fill="url(#paint48_radial_121_62471)"/>
<path d="M273.917 169.337L272.93 171.582L272.929 171.581C272.928 171.581 272.926 171.58 272.925 171.579C272.922 171.578 272.917 171.576 272.911 171.573C272.899 171.568 272.88 171.559 272.856 171.549C272.809 171.528 272.739 171.498 272.647 171.457C272.465 171.376 272.198 171.257 271.854 171.102C271.165 170.791 270.17 170.338 268.937 169.764C266.469 168.616 263.043 166.982 259.207 165.039C251.573 161.173 242.171 156.01 235.488 150.966L233.702 149.617L234.882 147.716C237.25 143.895 238.924 140.775 240.423 135.965C242.45 129.461 241.11 121.448 236.84 113.047C232.589 104.683 225.561 96.2061 216.725 88.9766C198.998 74.4739 174.542 65.4025 151.533 71.6787C134.065 76.4435 126.528 81.7626 120.985 85.7471C118.198 87.7507 115.615 89.6576 112.484 90.9033C109.272 92.1816 105.625 92.722 100.628 92.3789C88.0601 91.516 80.0278 87.968 71.5234 84.9561C63.093 81.9704 53.8074 79.3336 38.1777 79.8438C24.8447 80.2789 14.4699 82.5011 7.11133 89.9824C4.84551 92.2861 3.21847 96.0752 2.66113 100.98C2.10784 105.851 2.63767 111.624 4.47363 117.634C8.14088 129.639 16.9574 142.393 32.2988 150.567C34.3986 151.686 37.6304 152.763 41.7969 154.049C45.8732 155.307 50.7138 156.73 55.7158 158.521C65.6973 162.094 76.7333 167.266 84.5869 176.109C89.1827 181.284 93.3269 188.918 96.2783 195.095C97.7684 198.213 98.9815 201.019 99.8223 203.046C100.243 204.06 100.571 204.881 100.795 205.45C100.907 205.735 100.993 205.957 101.052 206.109C101.059 206.129 101.067 206.148 101.073 206.166C101.099 206.211 101.129 206.265 101.165 206.328C101.284 206.539 101.461 206.853 101.69 207.257C102.15 208.065 102.82 209.241 103.66 210.706C105.341 213.636 107.705 217.722 110.435 222.347C115.901 231.609 122.808 242.982 128.632 251.553C148.278 280.465 164.481 303.974 184.457 320.318C209.375 340.706 231.119 343.308 262.712 345.055C281.873 346.114 307.711 341.265 330.078 332.568C341.244 328.227 351.447 322.964 359.465 317.08C367.519 311.169 373.158 304.787 375.55 298.277C378.636 289.877 380.093 284.449 380.369 279.033C380.646 273.598 379.745 268.001 377.794 259.217C373.911 241.737 371.664 235.595 363.377 220.195L367.679 217.839C371.66 224.974 376.526 227.001 383.363 230.251C390.321 233.558 398.64 237.888 408.099 249.84C417.329 261.502 426.271 270.807 434.392 277.005C442.606 283.274 449.557 286.039 454.916 285.46C457.142 285.219 458.594 284.081 459.682 282.083C460.844 279.947 461.513 276.926 461.9 273.29C462.285 269.678 462.365 265.787 462.521 261.938C462.672 258.19 462.895 254.417 463.631 251.394C465.091 245.399 468.31 240.437 471.635 235.864C475.037 231.185 478.454 227.016 480.954 222.172C482.031 220.086 482.845 216.474 483.034 212.255C483.221 208.082 482.781 203.623 481.595 199.933C480.388 196.18 478.559 193.653 476.292 192.604C474.148 191.613 470.841 191.603 465.787 194.681L464.497 195.467L463.214 194.668C459.185 192.157 456.245 191.335 454.15 191.416C452.203 191.492 450.705 192.358 449.439 194.04C448.106 195.812 447.07 198.465 446.331 201.891C445.599 205.284 445.2 209.244 445.015 213.48C444.644 221.974 445.145 231.237 445.403 238.816C445.531 242.561 445.601 245.944 445.454 248.537C445.381 249.827 445.25 251.028 445.009 252.025C444.804 252.875 444.387 254.194 443.29 255.006C441.338 256.45 439.072 255.622 437.676 254.854C436.104 253.988 434.379 252.539 432.589 250.762C428.973 247.172 424.59 241.734 419.917 235.272C410.55 222.32 399.769 204.915 391.249 189.044C386.273 179.774 374.351 171.152 361.419 168.279C348.633 165.439 335.397 168.299 327.074 181.188L327.045 181.232L327.014 181.277L327.013 181.276V181.278C327.012 181.28 327.01 181.283 327.007 181.287C327.001 181.295 326.992 181.308 326.979 181.326C326.954 181.362 326.916 181.417 326.864 181.491L326.835 181.532L326.805 181.572C325.434 183.378 323.29 184.196 321.165 184.541C319.004 184.892 316.476 184.82 313.826 184.507C308.511 183.878 302.176 182.208 296.174 180.307C290.145 178.397 284.339 176.216 280.047 174.518C277.899 173.667 276.124 172.936 274.886 172.416C274.266 172.156 273.78 171.948 273.448 171.806C273.282 171.734 273.154 171.679 273.067 171.642C273.024 171.623 272.991 171.608 272.969 171.599C272.957 171.594 272.948 171.59 272.942 171.587C272.939 171.586 272.937 171.585 272.936 171.584L272.934 171.583L273.917 169.337ZM273.917 169.337L272.933 171.583L272.931 171.582L273.917 169.337Z" fill="url(#paint49_linear_121_62471)"/>
<path d="M273.917 169.337L272.93 171.582L272.929 171.581C272.928 171.581 272.926 171.58 272.925 171.579C272.922 171.578 272.917 171.576 272.911 171.573C272.899 171.568 272.88 171.559 272.856 171.549C272.809 171.528 272.739 171.498 272.647 171.457C272.465 171.376 272.198 171.257 271.854 171.102C271.165 170.791 270.17 170.338 268.937 169.764C266.469 168.616 263.043 166.982 259.207 165.039C251.573 161.173 242.171 156.01 235.488 150.966L233.702 149.617L234.882 147.716C237.25 143.895 238.924 140.775 240.423 135.965C242.45 129.461 241.11 121.448 236.84 113.047C232.589 104.683 225.561 96.2061 216.725 88.9766C198.998 74.4739 174.542 65.4025 151.533 71.6787C134.065 76.4435 126.528 81.7626 120.985 85.7471C118.198 87.7507 115.615 89.6576 112.484 90.9033C109.272 92.1816 105.625 92.722 100.628 92.3789C88.0601 91.516 80.0278 87.968 71.5234 84.9561C63.093 81.9704 53.8074 79.3336 38.1777 79.8438C24.8447 80.2789 14.4699 82.5011 7.11133 89.9824C4.84551 92.2861 3.21847 96.0752 2.66113 100.98C2.10784 105.851 2.63767 111.624 4.47363 117.634C8.14088 129.639 16.9574 142.393 32.2988 150.567C34.3986 151.686 37.6304 152.763 41.7969 154.049C45.8732 155.307 50.7138 156.73 55.7158 158.521C65.6973 162.094 76.7333 167.266 84.5869 176.109C89.1827 181.284 93.3269 188.918 96.2783 195.095C97.7684 198.213 98.9815 201.019 99.8223 203.046C100.243 204.06 100.571 204.881 100.795 205.45C100.907 205.735 100.993 205.957 101.052 206.109C101.059 206.129 101.067 206.148 101.073 206.166C101.099 206.211 101.129 206.265 101.165 206.328C101.284 206.539 101.461 206.853 101.69 207.257C102.15 208.065 102.82 209.241 103.66 210.706C105.341 213.636 107.705 217.722 110.435 222.347C115.901 231.609 122.808 242.982 128.632 251.553C148.278 280.465 164.481 303.974 184.457 320.318C209.375 340.706 231.119 343.308 262.712 345.055C281.873 346.114 307.711 341.265 330.078 332.568C341.244 328.227 351.447 322.964 359.465 317.08C367.519 311.169 373.158 304.787 375.55 298.277C378.636 289.877 380.093 284.449 380.369 279.033C380.646 273.598 379.745 268.001 377.794 259.217C373.911 241.737 371.664 235.595 363.377 220.195L367.679 217.839C371.66 224.974 376.526 227.001 383.363 230.251C390.321 233.558 398.64 237.888 408.099 249.84C417.329 261.502 426.271 270.807 434.392 277.005C442.606 283.274 449.557 286.039 454.916 285.46C457.142 285.219 458.594 284.081 459.682 282.083C460.844 279.947 461.513 276.926 461.9 273.29C462.285 269.678 462.365 265.787 462.521 261.938C462.672 258.19 462.895 254.417 463.631 251.394C465.091 245.399 468.31 240.437 471.635 235.864C475.037 231.185 478.454 227.016 480.954 222.172C482.031 220.086 482.845 216.474 483.034 212.255C483.221 208.082 482.781 203.623 481.595 199.933C480.388 196.18 478.559 193.653 476.292 192.604C474.148 191.613 470.841 191.603 465.787 194.681L464.497 195.467L463.214 194.668C459.185 192.157 456.245 191.335 454.15 191.416C452.203 191.492 450.705 192.358 449.439 194.04C448.106 195.812 447.07 198.465 446.331 201.891C445.599 205.284 445.2 209.244 445.015 213.48C444.644 221.974 445.145 231.237 445.403 238.816C445.531 242.561 445.601 245.944 445.454 248.537C445.381 249.827 445.25 251.028 445.009 252.025C444.804 252.875 444.387 254.194 443.29 255.006C441.338 256.45 439.072 255.622 437.676 254.854C436.104 253.988 434.379 252.539 432.589 250.762C428.973 247.172 424.59 241.734 419.917 235.272C410.55 222.32 399.769 204.915 391.249 189.044C386.273 179.774 374.351 171.152 361.419 168.279C348.633 165.439 335.397 168.299 327.074 181.188L327.045 181.232L327.014 181.277L327.013 181.276V181.278C327.012 181.28 327.01 181.283 327.007 181.287C327.001 181.295 326.992 181.308 326.979 181.326C326.954 181.362 326.916 181.417 326.864 181.491L326.835 181.532L326.805 181.572C325.434 183.378 323.29 184.196 321.165 184.541C319.004 184.892 316.476 184.82 313.826 184.507C308.511 183.878 302.176 182.208 296.174 180.307C290.145 178.397 284.339 176.216 280.047 174.518C277.899 173.667 276.124 172.936 274.886 172.416C274.266 172.156 273.78 171.948 273.448 171.806C273.282 171.734 273.154 171.679 273.067 171.642C273.024 171.623 272.991 171.608 272.969 171.599C272.957 171.594 272.948 171.59 272.942 171.587C272.939 171.586 272.937 171.585 272.936 171.584L272.934 171.583L273.917 169.337ZM273.917 169.337L272.933 171.583L272.931 171.582L273.917 169.337Z" fill="url(#paint50_linear_121_62471)"/>
<path d="M273.917 169.337L272.93 171.582L272.929 171.581C272.928 171.581 272.926 171.58 272.925 171.579C272.922 171.578 272.917 171.576 272.911 171.573C272.899 171.568 272.88 171.559 272.856 171.549C272.809 171.528 272.739 171.498 272.647 171.457C272.465 171.376 272.198 171.257 271.854 171.102C271.165 170.791 270.17 170.338 268.937 169.764C266.469 168.616 263.043 166.982 259.207 165.039C251.573 161.173 242.171 156.01 235.488 150.966L233.702 149.617L234.882 147.716C237.25 143.895 238.924 140.775 240.423 135.965C242.45 129.461 241.11 121.448 236.84 113.047C232.589 104.683 225.561 96.2061 216.725 88.9766C198.998 74.4739 174.542 65.4025 151.533 71.6787C134.065 76.4435 126.528 81.7626 120.985 85.7471C118.198 87.7507 115.615 89.6576 112.484 90.9033C109.272 92.1816 105.625 92.722 100.628 92.3789C88.0601 91.516 80.0278 87.968 71.5234 84.9561C63.093 81.9704 53.8074 79.3336 38.1777 79.8438C24.8447 80.2789 14.4699 82.5011 7.11133 89.9824C4.84551 92.2861 3.21847 96.0752 2.66113 100.98C2.10784 105.851 2.63767 111.624 4.47363 117.634C8.14088 129.639 16.9574 142.393 32.2988 150.567C34.3986 151.686 37.6304 152.763 41.7969 154.049C45.8732 155.307 50.7138 156.73 55.7158 158.521C65.6973 162.094 76.7333 167.266 84.5869 176.109C89.1827 181.284 93.3269 188.918 96.2783 195.095C97.7684 198.213 98.9815 201.019 99.8223 203.046C100.243 204.06 100.571 204.881 100.795 205.45C100.907 205.735 100.993 205.957 101.052 206.109C101.059 206.129 101.067 206.148 101.073 206.166C101.099 206.211 101.129 206.265 101.165 206.328C101.284 206.539 101.461 206.853 101.69 207.257C102.15 208.065 102.82 209.241 103.66 210.706C105.341 213.636 107.705 217.722 110.435 222.347C115.901 231.609 122.808 242.982 128.632 251.553C148.278 280.465 164.481 303.974 184.457 320.318C209.375 340.706 231.119 343.308 262.712 345.055C281.873 346.114 307.711 341.265 330.078 332.568C341.244 328.227 351.447 322.964 359.465 317.08C367.519 311.169 373.158 304.787 375.55 298.277C378.636 289.877 380.093 284.449 380.369 279.033C380.646 273.598 379.745 268.001 377.794 259.217C373.911 241.737 371.664 235.595 363.377 220.195L367.679 217.839C371.66 224.974 376.526 227.001 383.363 230.251C390.321 233.558 398.64 237.888 408.099 249.84C417.329 261.502 426.271 270.807 434.392 277.005C442.606 283.274 449.557 286.039 454.916 285.46C457.142 285.219 458.594 284.081 459.682 282.083C460.844 279.947 461.513 276.926 461.9 273.29C462.285 269.678 462.365 265.787 462.521 261.938C462.672 258.19 462.895 254.417 463.631 251.394C465.091 245.399 468.31 240.437 471.635 235.864C475.037 231.185 478.454 227.016 480.954 222.172C482.031 220.086 482.845 216.474 483.034 212.255C483.221 208.082 482.781 203.623 481.595 199.933C480.388 196.18 478.559 193.653 476.292 192.604C474.148 191.613 470.841 191.603 465.787 194.681L464.497 195.467L463.214 194.668C459.185 192.157 456.245 191.335 454.15 191.416C452.203 191.492 450.705 192.358 449.439 194.04C448.106 195.812 447.07 198.465 446.331 201.891C445.599 205.284 445.2 209.244 445.015 213.48C444.644 221.974 445.145 231.237 445.403 238.816C445.531 242.561 445.601 245.944 445.454 248.537C445.381 249.827 445.25 251.028 445.009 252.025C444.804 252.875 444.387 254.194 443.29 255.006C441.338 256.45 439.072 255.622 437.676 254.854C436.104 253.988 434.379 252.539 432.589 250.762C428.973 247.172 424.59 241.734 419.917 235.272C410.55 222.32 399.769 204.915 391.249 189.044C386.273 179.774 374.351 171.152 361.419 168.279C348.633 165.439 335.397 168.299 327.074 181.188L327.045 181.232L327.014 181.277L327.013 181.276V181.278C327.012 181.28 327.01 181.283 327.007 181.287C327.001 181.295 326.992 181.308 326.979 181.326C326.954 181.362 326.916 181.417 326.864 181.491L326.835 181.532L326.805 181.572C325.434 183.378 323.29 184.196 321.165 184.541C319.004 184.892 316.476 184.82 313.826 184.507C308.511 183.878 302.176 182.208 296.174 180.307C290.145 178.397 284.339 176.216 280.047 174.518C277.899 173.667 276.124 172.936 274.886 172.416C274.266 172.156 273.78 171.948 273.448 171.806C273.282 171.734 273.154 171.679 273.067 171.642C273.024 171.623 272.991 171.608 272.969 171.599C272.957 171.594 272.948 171.59 272.942 171.587C272.939 171.586 272.937 171.585 272.936 171.584L272.934 171.583L273.917 169.337ZM273.917 169.337L272.933 171.583L272.931 171.582L273.917 169.337Z" fill="url(#paint51_linear_121_62471)"/>
<path d="M273.917 169.337L272.93 171.582L272.929 171.581C272.928 171.581 272.926 171.58 272.925 171.579C272.922 171.578 272.917 171.576 272.911 171.573C272.899 171.568 272.88 171.559 272.856 171.549C272.809 171.528 272.739 171.498 272.647 171.457C272.465 171.376 272.198 171.257 271.854 171.102C271.165 170.791 270.17 170.338 268.937 169.764C266.469 168.616 263.043 166.982 259.207 165.039C251.573 161.173 242.171 156.01 235.488 150.966L233.702 149.617L234.882 147.716C237.25 143.895 238.924 140.775 240.423 135.965C242.45 129.461 241.11 121.448 236.84 113.047C232.589 104.683 225.561 96.2061 216.725 88.9766C198.998 74.4739 174.542 65.4025 151.533 71.6787C134.065 76.4435 126.528 81.7626 120.985 85.7471C118.198 87.7507 115.615 89.6576 112.484 90.9033C109.272 92.1816 105.625 92.722 100.628 92.3789C88.0601 91.516 80.0278 87.968 71.5234 84.9561C63.093 81.9704 53.8074 79.3336 38.1777 79.8438C24.8447 80.2789 14.4699 82.5011 7.11133 89.9824C4.84551 92.2861 3.21847 96.0752 2.66113 100.98C2.10784 105.851 2.63767 111.624 4.47363 117.634C8.14088 129.639 16.9574 142.393 32.2988 150.567C34.3986 151.686 37.6304 152.763 41.7969 154.049C45.8732 155.307 50.7138 156.73 55.7158 158.521C65.6973 162.094 76.7333 167.266 84.5869 176.109C89.1827 181.284 93.3269 188.918 96.2783 195.095C97.7684 198.213 98.9815 201.019 99.8223 203.046C100.243 204.06 100.571 204.881 100.795 205.45C100.907 205.735 100.993 205.957 101.052 206.109C101.059 206.129 101.067 206.148 101.073 206.166C101.099 206.211 101.129 206.265 101.165 206.328C101.284 206.539 101.461 206.853 101.69 207.257C102.15 208.065 102.82 209.241 103.66 210.706C105.341 213.636 107.705 217.722 110.435 222.347C115.901 231.609 122.808 242.982 128.632 251.553C148.278 280.465 164.481 303.974 184.457 320.318C209.375 340.706 231.119 343.308 262.712 345.055C281.873 346.114 307.711 341.265 330.078 332.568C341.244 328.227 351.447 322.964 359.465 317.08C367.519 311.169 373.158 304.787 375.55 298.277C378.636 289.877 380.093 284.449 380.369 279.033C380.646 273.598 379.745 268.001 377.794 259.217C373.911 241.737 371.664 235.595 363.377 220.195L367.679 217.839C371.66 224.974 376.526 227.001 383.363 230.251C390.321 233.558 398.64 237.888 408.099 249.84C417.329 261.502 426.271 270.807 434.392 277.005C442.606 283.274 449.557 286.039 454.916 285.46C457.142 285.219 458.594 284.081 459.682 282.083C460.844 279.947 461.513 276.926 461.9 273.29C462.285 269.678 462.365 265.787 462.521 261.938C462.672 258.19 462.895 254.417 463.631 251.394C465.091 245.399 468.31 240.437 471.635 235.864C475.037 231.185 478.454 227.016 480.954 222.172C482.031 220.086 482.845 216.474 483.034 212.255C483.221 208.082 482.781 203.623 481.595 199.933C480.388 196.18 478.559 193.653 476.292 192.604C474.148 191.613 470.841 191.603 465.787 194.681L464.497 195.467L463.214 194.668C459.185 192.157 456.245 191.335 454.15 191.416C452.203 191.492 450.705 192.358 449.439 194.04C448.106 195.812 447.07 198.465 446.331 201.891C445.599 205.284 445.2 209.244 445.015 213.48C444.644 221.974 445.145 231.237 445.403 238.816C445.531 242.561 445.601 245.944 445.454 248.537C445.381 249.827 445.25 251.028 445.009 252.025C444.804 252.875 444.387 254.194 443.29 255.006C441.338 256.45 439.072 255.622 437.676 254.854C436.104 253.988 434.379 252.539 432.589 250.762C428.973 247.172 424.59 241.734 419.917 235.272C410.55 222.32 399.769 204.915 391.249 189.044C386.273 179.774 374.351 171.152 361.419 168.279C348.633 165.439 335.397 168.299 327.074 181.188L327.045 181.232L327.014 181.277L327.013 181.276V181.278C327.012 181.28 327.01 181.283 327.007 181.287C327.001 181.295 326.992 181.308 326.979 181.326C326.954 181.362 326.916 181.417 326.864 181.491L326.835 181.532L326.805 181.572C325.434 183.378 323.29 184.196 321.165 184.541C319.004 184.892 316.476 184.82 313.826 184.507C308.511 183.878 302.176 182.208 296.174 180.307C290.145 178.397 284.339 176.216 280.047 174.518C277.899 173.667 276.124 172.936 274.886 172.416C274.266 172.156 273.78 171.948 273.448 171.806C273.282 171.734 273.154 171.679 273.067 171.642C273.024 171.623 272.991 171.608 272.969 171.599C272.957 171.594 272.948 171.59 272.942 171.587C272.939 171.586 272.937 171.585 272.936 171.584L272.934 171.583L273.917 169.337ZM273.917 169.337L272.933 171.583L272.931 171.582L273.917 169.337Z" fill="url(#paint52_radial_121_62471)"/>
<path d="M273.917 169.337L272.93 171.582L272.929 171.581C272.928 171.581 272.926 171.58 272.925 171.579C272.922 171.578 272.917 171.576 272.911 171.573C272.899 171.568 272.88 171.559 272.856 171.549C272.809 171.528 272.739 171.498 272.647 171.457C272.465 171.376 272.198 171.257 271.854 171.102C271.165 170.791 270.17 170.338 268.937 169.764C266.469 168.616 263.043 166.982 259.207 165.039C251.573 161.173 242.171 156.01 235.488 150.966L233.702 149.617L234.882 147.716C237.25 143.895 238.924 140.775 240.423 135.965C242.45 129.461 241.11 121.448 236.84 113.047C232.589 104.683 225.561 96.2061 216.725 88.9766C198.998 74.4739 174.542 65.4025 151.533 71.6787C134.065 76.4435 126.528 81.7626 120.985 85.7471C118.198 87.7507 115.615 89.6576 112.484 90.9033C109.272 92.1816 105.625 92.722 100.628 92.3789C88.0601 91.516 80.0278 87.968 71.5234 84.9561C63.093 81.9704 53.8074 79.3336 38.1777 79.8438C24.8447 80.2789 14.4699 82.5011 7.11133 89.9824C4.84551 92.2861 3.21847 96.0752 2.66113 100.98C2.10784 105.851 2.63767 111.624 4.47363 117.634C8.14088 129.639 16.9574 142.393 32.2988 150.567C34.3986 151.686 37.6304 152.763 41.7969 154.049C45.8732 155.307 50.7138 156.73 55.7158 158.521C65.6973 162.094 76.7333 167.266 84.5869 176.109C89.1827 181.284 93.3269 188.918 96.2783 195.095C97.7684 198.213 98.9815 201.019 99.8223 203.046C100.243 204.06 100.571 204.881 100.795 205.45C100.907 205.735 100.993 205.957 101.052 206.109C101.059 206.129 101.067 206.148 101.073 206.166C101.099 206.211 101.129 206.265 101.165 206.328C101.284 206.539 101.461 206.853 101.69 207.257C102.15 208.065 102.82 209.241 103.66 210.706C105.341 213.636 107.705 217.722 110.435 222.347C115.901 231.609 122.808 242.982 128.632 251.553C148.278 280.465 164.481 303.974 184.457 320.318C209.375 340.706 231.119 343.308 262.712 345.055C281.873 346.114 307.711 341.265 330.078 332.568C341.244 328.227 351.447 322.964 359.465 317.08C367.519 311.169 373.158 304.787 375.55 298.277C378.636 289.877 380.093 284.449 380.369 279.033C380.646 273.598 379.745 268.001 377.794 259.217C373.911 241.737 371.664 235.595 363.377 220.195L367.679 217.839C371.66 224.974 376.526 227.001 383.363 230.251C390.321 233.558 398.64 237.888 408.099 249.84C417.329 261.502 426.271 270.807 434.392 277.005C442.606 283.274 449.557 286.039 454.916 285.46C457.142 285.219 458.594 284.081 459.682 282.083C460.844 279.947 461.513 276.926 461.9 273.29C462.285 269.678 462.365 265.787 462.521 261.938C462.672 258.19 462.895 254.417 463.631 251.394C465.091 245.399 468.31 240.437 471.635 235.864C475.037 231.185 478.454 227.016 480.954 222.172C482.031 220.086 482.845 216.474 483.034 212.255C483.221 208.082 482.781 203.623 481.595 199.933C480.388 196.18 478.559 193.653 476.292 192.604C474.148 191.613 470.841 191.603 465.787 194.681L464.497 195.467L463.214 194.668C459.185 192.157 456.245 191.335 454.15 191.416C452.203 191.492 450.705 192.358 449.439 194.04C448.106 195.812 447.07 198.465 446.331 201.891C445.599 205.284 445.2 209.244 445.015 213.48C444.644 221.974 445.145 231.237 445.403 238.816C445.531 242.561 445.601 245.944 445.454 248.537C445.381 249.827 445.25 251.028 445.009 252.025C444.804 252.875 444.387 254.194 443.29 255.006C441.338 256.45 439.072 255.622 437.676 254.854C436.104 253.988 434.379 252.539 432.589 250.762C428.973 247.172 424.59 241.734 419.917 235.272C410.55 222.32 399.769 204.915 391.249 189.044C386.273 179.774 374.351 171.152 361.419 168.279C348.633 165.439 335.397 168.299 327.074 181.188L327.045 181.232L327.014 181.277L327.013 181.276V181.278C327.012 181.28 327.01 181.283 327.007 181.287C327.001 181.295 326.992 181.308 326.979 181.326C326.954 181.362 326.916 181.417 326.864 181.491L326.835 181.532L326.805 181.572C325.434 183.378 323.29 184.196 321.165 184.541C319.004 184.892 316.476 184.82 313.826 184.507C308.511 183.878 302.176 182.208 296.174 180.307C290.145 178.397 284.339 176.216 280.047 174.518C277.899 173.667 276.124 172.936 274.886 172.416C274.266 172.156 273.78 171.948 273.448 171.806C273.282 171.734 273.154 171.679 273.067 171.642C273.024 171.623 272.991 171.608 272.969 171.599C272.957 171.594 272.948 171.59 272.942 171.587C272.939 171.586 272.937 171.585 272.936 171.584L272.934 171.583L273.917 169.337ZM273.917 169.337L272.933 171.583L272.931 171.582L273.917 169.337Z" fill="url(#paint53_radial_121_62471)"/>
<path d="M273.917 169.337L272.93 171.582L272.929 171.581C272.928 171.581 272.926 171.58 272.925 171.579C272.922 171.578 272.917 171.576 272.911 171.573C272.899 171.568 272.88 171.559 272.856 171.549C272.809 171.528 272.739 171.498 272.647 171.457C272.465 171.376 272.198 171.257 271.854 171.102C271.165 170.791 270.17 170.338 268.937 169.764C266.469 168.616 263.043 166.982 259.207 165.039C251.573 161.173 242.171 156.01 235.488 150.966L233.702 149.617L234.882 147.716C237.25 143.895 238.924 140.775 240.423 135.965C242.45 129.461 241.11 121.448 236.84 113.047C232.589 104.683 225.561 96.2061 216.725 88.9766C198.998 74.4739 174.542 65.4025 151.533 71.6787C134.065 76.4435 126.528 81.7626 120.985 85.7471C118.198 87.7507 115.615 89.6576 112.484 90.9033C109.272 92.1816 105.625 92.722 100.628 92.3789C88.0601 91.516 80.0278 87.968 71.5234 84.9561C63.093 81.9704 53.8074 79.3336 38.1777 79.8438C24.8447 80.2789 14.4699 82.5011 7.11133 89.9824C4.84551 92.2861 3.21847 96.0752 2.66113 100.98C2.10784 105.851 2.63767 111.624 4.47363 117.634C8.14088 129.639 16.9574 142.393 32.2988 150.567C34.3986 151.686 37.6304 152.763 41.7969 154.049C45.8732 155.307 50.7138 156.73 55.7158 158.521C65.6973 162.094 76.7333 167.266 84.5869 176.109C89.1827 181.284 93.3269 188.918 96.2783 195.095C97.7684 198.213 98.9815 201.019 99.8223 203.046C100.243 204.06 100.571 204.881 100.795 205.45C100.907 205.735 100.993 205.957 101.052 206.109C101.059 206.129 101.067 206.148 101.073 206.166C101.099 206.211 101.129 206.265 101.165 206.328C101.284 206.539 101.461 206.853 101.69 207.257C102.15 208.065 102.82 209.241 103.66 210.706C105.341 213.636 107.705 217.722 110.435 222.347C115.901 231.609 122.808 242.982 128.632 251.553C148.278 280.465 164.481 303.974 184.457 320.318C209.375 340.706 231.119 343.308 262.712 345.055C281.873 346.114 307.711 341.265 330.078 332.568C341.244 328.227 351.447 322.964 359.465 317.08C367.519 311.169 373.158 304.787 375.55 298.277C378.636 289.877 380.093 284.449 380.369 279.033C380.646 273.598 379.745 268.001 377.794 259.217C373.911 241.737 371.664 235.595 363.377 220.195L367.679 217.839C371.66 224.974 376.526 227.001 383.363 230.251C390.321 233.558 398.64 237.888 408.099 249.84C417.329 261.502 426.271 270.807 434.392 277.005C442.606 283.274 449.557 286.039 454.916 285.46C457.142 285.219 458.594 284.081 459.682 282.083C460.844 279.947 461.513 276.926 461.9 273.29C462.285 269.678 462.365 265.787 462.521 261.938C462.672 258.19 462.895 254.417 463.631 251.394C465.091 245.399 468.31 240.437 471.635 235.864C475.037 231.185 478.454 227.016 480.954 222.172C482.031 220.086 482.845 216.474 483.034 212.255C483.221 208.082 482.781 203.623 481.595 199.933C480.388 196.18 478.559 193.653 476.292 192.604C474.148 191.613 470.841 191.603 465.787 194.681L464.497 195.467L463.214 194.668C459.185 192.157 456.245 191.335 454.15 191.416C452.203 191.492 450.705 192.358 449.439 194.04C448.106 195.812 447.07 198.465 446.331 201.891C445.599 205.284 445.2 209.244 445.015 213.48C444.644 221.974 445.145 231.237 445.403 238.816C445.531 242.561 445.601 245.944 445.454 248.537C445.381 249.827 445.25 251.028 445.009 252.025C444.804 252.875 444.387 254.194 443.29 255.006C441.338 256.45 439.072 255.622 437.676 254.854C436.104 253.988 434.379 252.539 432.589 250.762C428.973 247.172 424.59 241.734 419.917 235.272C410.55 222.32 399.769 204.915 391.249 189.044C386.273 179.774 374.351 171.152 361.419 168.279C348.633 165.439 335.397 168.299 327.074 181.188L327.045 181.232L327.014 181.277L327.013 181.276V181.278C327.012 181.28 327.01 181.283 327.007 181.287C327.001 181.295 326.992 181.308 326.979 181.326C326.954 181.362 326.916 181.417 326.864 181.491L326.835 181.532L326.805 181.572C325.434 183.378 323.29 184.196 321.165 184.541C319.004 184.892 316.476 184.82 313.826 184.507C308.511 183.878 302.176 182.208 296.174 180.307C290.145 178.397 284.339 176.216 280.047 174.518C277.899 173.667 276.124 172.936 274.886 172.416C274.266 172.156 273.78 171.948 273.448 171.806C273.282 171.734 273.154 171.679 273.067 171.642C273.024 171.623 272.991 171.608 272.969 171.599C272.957 171.594 272.948 171.59 272.942 171.587C272.939 171.586 272.937 171.585 272.936 171.584L272.934 171.583L273.917 169.337ZM273.917 169.337L272.933 171.583L272.931 171.582L273.917 169.337Z" fill="url(#paint54_radial_121_62471)"/>
<path d="M273.917 169.337L272.93 171.582L272.929 171.581C272.928 171.581 272.926 171.58 272.925 171.579C272.922 171.578 272.917 171.576 272.911 171.573C272.899 171.568 272.88 171.559 272.856 171.549C272.809 171.528 272.739 171.498 272.647 171.457C272.465 171.376 272.198 171.257 271.854 171.102C271.165 170.791 270.17 170.338 268.937 169.764C266.469 168.616 263.043 166.982 259.207 165.039C251.573 161.173 242.171 156.01 235.488 150.966L233.702 149.617L234.882 147.716C237.25 143.895 238.924 140.775 240.423 135.965C242.45 129.461 241.11 121.448 236.84 113.047C232.589 104.683 225.561 96.2061 216.725 88.9766C198.998 74.4739 174.542 65.4025 151.533 71.6787C134.065 76.4435 126.528 81.7626 120.985 85.7471C118.198 87.7507 115.615 89.6576 112.484 90.9033C109.272 92.1816 105.625 92.722 100.628 92.3789C88.0601 91.516 80.0278 87.968 71.5234 84.9561C63.093 81.9704 53.8074 79.3336 38.1777 79.8438C24.8447 80.2789 14.4699 82.5011 7.11133 89.9824C4.84551 92.2861 3.21847 96.0752 2.66113 100.98C2.10784 105.851 2.63767 111.624 4.47363 117.634C8.14088 129.639 16.9574 142.393 32.2988 150.567C34.3986 151.686 37.6304 152.763 41.7969 154.049C45.8732 155.307 50.7138 156.73 55.7158 158.521C65.6973 162.094 76.7333 167.266 84.5869 176.109C89.1827 181.284 93.3269 188.918 96.2783 195.095C97.7684 198.213 98.9815 201.019 99.8223 203.046C100.243 204.06 100.571 204.881 100.795 205.45C100.907 205.735 100.993 205.957 101.052 206.109C101.059 206.129 101.067 206.148 101.073 206.166C101.099 206.211 101.129 206.265 101.165 206.328C101.284 206.539 101.461 206.853 101.69 207.257C102.15 208.065 102.82 209.241 103.66 210.706C105.341 213.636 107.705 217.722 110.435 222.347C115.901 231.609 122.808 242.982 128.632 251.553C148.278 280.465 164.481 303.974 184.457 320.318C209.375 340.706 231.119 343.308 262.712 345.055C281.873 346.114 307.711 341.265 330.078 332.568C341.244 328.227 351.447 322.964 359.465 317.08C367.519 311.169 373.158 304.787 375.55 298.277C378.636 289.877 380.093 284.449 380.369 279.033C380.646 273.598 379.745 268.001 377.794 259.217C373.911 241.737 371.664 235.595 363.377 220.195L367.679 217.839C371.66 224.974 376.526 227.001 383.363 230.251C390.321 233.558 398.64 237.888 408.099 249.84C417.329 261.502 426.271 270.807 434.392 277.005C442.606 283.274 449.557 286.039 454.916 285.46C457.142 285.219 458.594 284.081 459.682 282.083C460.844 279.947 461.513 276.926 461.9 273.29C462.285 269.678 462.365 265.787 462.521 261.938C462.672 258.19 462.895 254.417 463.631 251.394C465.091 245.399 468.31 240.437 471.635 235.864C475.037 231.185 478.454 227.016 480.954 222.172C482.031 220.086 482.845 216.474 483.034 212.255C483.221 208.082 482.781 203.623 481.595 199.933C480.388 196.18 478.559 193.653 476.292 192.604C474.148 191.613 470.841 191.603 465.787 194.681L464.497 195.467L463.214 194.668C459.185 192.157 456.245 191.335 454.15 191.416C452.203 191.492 450.705 192.358 449.439 194.04C448.106 195.812 447.07 198.465 446.331 201.891C445.599 205.284 445.2 209.244 445.015 213.48C444.644 221.974 445.145 231.237 445.403 238.816C445.531 242.561 445.601 245.944 445.454 248.537C445.381 249.827 445.25 251.028 445.009 252.025C444.804 252.875 444.387 254.194 443.29 255.006C441.338 256.45 439.072 255.622 437.676 254.854C436.104 253.988 434.379 252.539 432.589 250.762C428.973 247.172 424.59 241.734 419.917 235.272C410.55 222.32 399.769 204.915 391.249 189.044C386.273 179.774 374.351 171.152 361.419 168.279C348.633 165.439 335.397 168.299 327.074 181.188L327.045 181.232L327.014 181.277L327.013 181.276V181.278C327.012 181.28 327.01 181.283 327.007 181.287C327.001 181.295 326.992 181.308 326.979 181.326C326.954 181.362 326.916 181.417 326.864 181.491L326.835 181.532L326.805 181.572C325.434 183.378 323.29 184.196 321.165 184.541C319.004 184.892 316.476 184.82 313.826 184.507C308.511 183.878 302.176 182.208 296.174 180.307C290.145 178.397 284.339 176.216 280.047 174.518C277.899 173.667 276.124 172.936 274.886 172.416C274.266 172.156 273.78 171.948 273.448 171.806C273.282 171.734 273.154 171.679 273.067 171.642C273.024 171.623 272.991 171.608 272.969 171.599C272.957 171.594 272.948 171.59 272.942 171.587C272.939 171.586 272.937 171.585 272.936 171.584L272.934 171.583L273.917 169.337ZM273.917 169.337L272.933 171.583L272.931 171.582L273.917 169.337Z" fill="url(#paint55_linear_121_62471)"/>
<path d="M273.917 169.337L272.93 171.582L272.929 171.581C272.928 171.581 272.926 171.58 272.925 171.579C272.922 171.578 272.917 171.576 272.911 171.573C272.899 171.568 272.88 171.559 272.856 171.549C272.809 171.528 272.739 171.498 272.647 171.457C272.465 171.376 272.198 171.257 271.854 171.102C271.165 170.791 270.17 170.338 268.937 169.764C266.469 168.616 263.043 166.982 259.207 165.039C251.573 161.173 242.171 156.01 235.488 150.966L233.702 149.617L234.882 147.716C237.25 143.895 238.924 140.775 240.423 135.965C242.45 129.461 241.11 121.448 236.84 113.047C232.589 104.683 225.561 96.2061 216.725 88.9766C198.998 74.4739 174.542 65.4025 151.533 71.6787C134.065 76.4435 126.528 81.7626 120.985 85.7471C118.198 87.7507 115.615 89.6576 112.484 90.9033C109.272 92.1816 105.625 92.722 100.628 92.3789C88.0601 91.516 80.0278 87.968 71.5234 84.9561C63.093 81.9704 53.8074 79.3336 38.1777 79.8438C24.8447 80.2789 14.4699 82.5011 7.11133 89.9824C4.84551 92.2861 3.21847 96.0752 2.66113 100.98C2.10784 105.851 2.63767 111.624 4.47363 117.634C8.14088 129.639 16.9574 142.393 32.2988 150.567C34.3986 151.686 37.6304 152.763 41.7969 154.049C45.8732 155.307 50.7138 156.73 55.7158 158.521C65.6973 162.094 76.7333 167.266 84.5869 176.109C89.1827 181.284 93.3269 188.918 96.2783 195.095C97.7684 198.213 98.9815 201.019 99.8223 203.046C100.243 204.06 100.571 204.881 100.795 205.45C100.907 205.735 100.993 205.957 101.052 206.109C101.059 206.129 101.067 206.148 101.073 206.166C101.099 206.211 101.129 206.265 101.165 206.328C101.284 206.539 101.461 206.853 101.69 207.257C102.15 208.065 102.82 209.241 103.66 210.706C105.341 213.636 107.705 217.722 110.435 222.347C115.901 231.609 122.808 242.982 128.632 251.553C148.278 280.465 164.481 303.974 184.457 320.318C209.375 340.706 231.119 343.308 262.712 345.055C281.873 346.114 307.711 341.265 330.078 332.568C341.244 328.227 351.447 322.964 359.465 317.08C367.519 311.169 373.158 304.787 375.55 298.277C378.636 289.877 380.093 284.449 380.369 279.033C380.646 273.598 379.745 268.001 377.794 259.217C373.911 241.737 371.664 235.595 363.377 220.195L367.679 217.839C371.66 224.974 376.526 227.001 383.363 230.251C390.321 233.558 398.64 237.888 408.099 249.84C417.329 261.502 426.271 270.807 434.392 277.005C442.606 283.274 449.557 286.039 454.916 285.46C457.142 285.219 458.594 284.081 459.682 282.083C460.844 279.947 461.513 276.926 461.9 273.29C462.285 269.678 462.365 265.787 462.521 261.938C462.672 258.19 462.895 254.417 463.631 251.394C465.091 245.399 468.31 240.437 471.635 235.864C475.037 231.185 478.454 227.016 480.954 222.172C482.031 220.086 482.845 216.474 483.034 212.255C483.221 208.082 482.781 203.623 481.595 199.933C480.388 196.18 478.559 193.653 476.292 192.604C474.148 191.613 470.841 191.603 465.787 194.681L464.497 195.467L463.214 194.668C459.185 192.157 456.245 191.335 454.15 191.416C452.203 191.492 450.705 192.358 449.439 194.04C448.106 195.812 447.07 198.465 446.331 201.891C445.599 205.284 445.2 209.244 445.015 213.48C444.644 221.974 445.145 231.237 445.403 238.816C445.531 242.561 445.601 245.944 445.454 248.537C445.381 249.827 445.25 251.028 445.009 252.025C444.804 252.875 444.387 254.194 443.29 255.006C441.338 256.45 439.072 255.622 437.676 254.854C436.104 253.988 434.379 252.539 432.589 250.762C428.973 247.172 424.59 241.734 419.917 235.272C410.55 222.32 399.769 204.915 391.249 189.044C386.273 179.774 374.351 171.152 361.419 168.279C348.633 165.439 335.397 168.299 327.074 181.188L327.045 181.232L327.014 181.277L327.013 181.276V181.278C327.012 181.28 327.01 181.283 327.007 181.287C327.001 181.295 326.992 181.308 326.979 181.326C326.954 181.362 326.916 181.417 326.864 181.491L326.835 181.532L326.805 181.572C325.434 183.378 323.29 184.196 321.165 184.541C319.004 184.892 316.476 184.82 313.826 184.507C308.511 183.878 302.176 182.208 296.174 180.307C290.145 178.397 284.339 176.216 280.047 174.518C277.899 173.667 276.124 172.936 274.886 172.416C274.266 172.156 273.78 171.948 273.448 171.806C273.282 171.734 273.154 171.679 273.067 171.642C273.024 171.623 272.991 171.608 272.969 171.599C272.957 171.594 272.948 171.59 272.942 171.587C272.939 171.586 272.937 171.585 272.936 171.584L272.934 171.583L273.917 169.337ZM273.917 169.337L272.933 171.583L272.931 171.582L273.917 169.337Z" stroke="black" stroke-width="4.90489"/>
<path d="M116.378 129.47C116.378 129.47 125.034 117.694 133.337 115.78C140.559 114.115 152.768 117.671 152.768 117.671" stroke="black" stroke-width="8.35981"/>
<path d="M183.235 119.919C198.489 100.415 227.14 93.5607 236.692 107.894C252.182 131.139 236.815 148.96 236.815 148.96C236.815 148.96 266.689 168.877 300.13 178.835C314.723 183.181 323.502 182.425 323.502 182.425C323.502 182.425 309.381 207.718 302.587 225.337C294.618 246 299.362 251.831 291.11 267.618C283.11 282.924 270.653 287.159 252.052 288.358C177.006 293.198 136.213 203 147.128 184.96C120.888 189.66 126.462 172.139 148.681 154.604C169.938 137.828 162.082 146.966 183.235 119.919Z" fill="#F3FFB9" stroke="black" stroke-width="4.1799"/>
<path d="M464.786 191.361C464.786 191.361 467.987 204.097 462.239 210.04" stroke="black" stroke-width="4.1799"/>
<path d="M29.7801 85.8287C18.3513 87.8627 9.61082 93.9029 8.71757 102.827C7.65426 113.451 12.0842 135.965 46.079 149.572C56.6963 153.821 72.7253 157.408 83.2534 160.726C83.2534 160.726 98.3036 109.559 82.8985 99.1105C71.6662 91.4923 48.5314 82.4916 29.7801 85.8287Z" fill="#FCBDB0" stroke="black" stroke-width="4.1799"/>
<path d="M212.739 119.453C219.208 114.082 215.676 99.4355 215.676 99.4355C215.676 99.4355 203.305 100.385 192.957 108.851C186.411 114.207 184.833 116.366 179.323 123.08C189.228 125.784 204.748 126.089 212.739 119.453Z" fill="black"/>
<path d="M211.036 116.612C210.122 124.352 219.673 135.018 219.673 135.018M219.673 135.018C219.673 135.018 227.032 132.162 227.655 124.804M219.673 135.018C219.673 135.018 210.091 140.354 203.336 141.799C194.609 143.665 187.217 139.552 187.217 139.552" stroke="black" stroke-width="8.35981"/>
<path d="M125.43 151.113L183.622 130.54L147.886 167.902" stroke="black" stroke-width="2.08995"/>
<path d="M251.579 83.1738L223.952 111.6L262.129 107.263" stroke="black" stroke-width="2.08995"/>
<ellipse cx="68.5731" cy="147.866" rx="32.4536" ry="40.0715" transform="rotate(-23.3726 68.5731 147.866)" fill="#3A0809"/>
<ellipse cx="64.5395" cy="151.482" rx="23.6282" ry="29.1745" transform="rotate(-23.3726 64.5395 151.482)" fill="#C2A6F1"/>
<ellipse cx="64.5395" cy="151.482" rx="23.6282" ry="29.1745" transform="rotate(-23.3726 64.5395 151.482)" fill="url(#paint56_radial_121_62471)"/>
<ellipse cx="64.5395" cy="151.482" rx="23.6282" ry="29.1745" transform="rotate(-23.3726 64.5395 151.482)" fill="url(#paint57_linear_121_62471)"/>
<ellipse cx="64.5395" cy="151.482" rx="23.6282" ry="29.1745" transform="rotate(-23.3726 64.5395 151.482)" fill="url(#paint58_linear_121_62471)"/>
<ellipse cx="64.5395" cy="151.482" rx="23.6282" ry="29.1745" transform="rotate(-23.3726 64.5395 151.482)" fill="url(#paint59_linear_121_62471)"/>
<ellipse cx="64.5395" cy="151.482" rx="23.6282" ry="29.1745" transform="rotate(-23.3726 64.5395 151.482)" fill="url(#paint60_radial_121_62471)"/>
<ellipse cx="64.5395" cy="151.482" rx="23.6282" ry="29.1745" transform="rotate(-23.3726 64.5395 151.482)" fill="url(#paint61_radial_121_62471)"/>
<ellipse cx="64.5395" cy="151.482" rx="23.6282" ry="29.1745" transform="rotate(-23.3726 64.5395 151.482)" fill="url(#paint62_radial_121_62471)"/>
<ellipse cx="64.5395" cy="151.482" rx="23.6282" ry="29.1745" transform="rotate(-23.3726 64.5395 151.482)" fill="url(#paint63_linear_121_62471)"/>
<ellipse cx="51.4615" cy="156.429" rx="6.27485" ry="7.74775" transform="rotate(-23.3726 51.4615 156.429)" fill="#E1D49D"/>
<path d="M57.8616 129.007C57.8616 129.007 76.0716 123.444 82.9831 146.334C89.8945 169.224 73.037 174.582 73.037 174.582" stroke="black" stroke-width="4.35457"/>
<path d="M198.801 58.1191C190.89 65.0096 164.518 18.6448 93.3423 59.7379C22.1671 100.831 59.1289 137.561 46.6191 147.357C43.8481 149.176 14.4028 87.3829 85.5781 46.2898C156.753 5.19678 204.041 52.7864 198.801 58.1191Z" fill="#C2A6F1"/>
<path d="M198.801 58.1191C190.89 65.0096 164.518 18.6448 93.3423 59.7379C22.1671 100.831 59.1289 137.561 46.6191 147.357C43.8481 149.176 14.4028 87.3829 85.5781 46.2898C156.753 5.19678 204.041 52.7864 198.801 58.1191Z" fill="url(#paint64_radial_121_62471)"/>
<path d="M198.801 58.1191C190.89 65.0096 164.518 18.6448 93.3423 59.7379C22.1671 100.831 59.1289 137.561 46.6191 147.357C43.8481 149.176 14.4028 87.3829 85.5781 46.2898C156.753 5.19678 204.041 52.7864 198.801 58.1191Z" fill="url(#paint65_linear_121_62471)"/>
<path d="M198.801 58.1191C190.89 65.0096 164.518 18.6448 93.3423 59.7379C22.1671 100.831 59.1289 137.561 46.6191 147.357C43.8481 149.176 14.4028 87.3829 85.5781 46.2898C156.753 5.19678 204.041 52.7864 198.801 58.1191Z" fill="url(#paint66_linear_121_62471)"/>
<path d="M198.801 58.1191C190.89 65.0096 164.518 18.6448 93.3423 59.7379C22.1671 100.831 59.1289 137.561 46.6191 147.357C43.8481 149.176 14.4028 87.3829 85.5781 46.2898C156.753 5.19678 204.041 52.7864 198.801 58.1191Z" fill="url(#paint67_linear_121_62471)"/>
<path d="M198.801 58.1191C190.89 65.0096 164.518 18.6448 93.3423 59.7379C22.1671 100.831 59.1289 137.561 46.6191 147.357C43.8481 149.176 14.4028 87.3829 85.5781 46.2898C156.753 5.19678 204.041 52.7864 198.801 58.1191Z" fill="url(#paint68_radial_121_62471)"/>
<path d="M198.801 58.1191C190.89 65.0096 164.518 18.6448 93.3423 59.7379C22.1671 100.831 59.1289 137.561 46.6191 147.357C43.8481 149.176 14.4028 87.3829 85.5781 46.2898C156.753 5.19678 204.041 52.7864 198.801 58.1191Z" fill="url(#paint69_radial_121_62471)"/>
<path d="M198.801 58.1191C190.89 65.0096 164.518 18.6448 93.3423 59.7379C22.1671 100.831 59.1289 137.561 46.6191 147.357C43.8481 149.176 14.4028 87.3829 85.5781 46.2898C156.753 5.19678 204.041 52.7864 198.801 58.1191Z" fill="url(#paint70_radial_121_62471)"/>
<path d="M198.801 58.1191C190.89 65.0096 164.518 18.6448 93.3423 59.7379C22.1671 100.831 59.1289 137.561 46.6191 147.357C43.8481 149.176 14.4028 87.3829 85.5781 46.2898C156.753 5.19678 204.041 52.7864 198.801 58.1191Z" fill="url(#paint71_linear_121_62471)"/>
<path d="M99.0146 209.962L103.399 210.268L129.13 252.295L125.346 251.71L111.778 230.859L99.0146 209.962Z" fill="#C2A6F1"/>
<path d="M99.0146 209.962L103.399 210.268L129.13 252.295L125.346 251.71L111.778 230.859L99.0146 209.962Z" fill="url(#paint72_radial_121_62471)"/>
<path d="M99.0146 209.962L103.399 210.268L129.13 252.295L125.346 251.71L111.778 230.859L99.0146 209.962Z" fill="url(#paint73_linear_121_62471)"/>
<path d="M99.0146 209.962L103.399 210.268L129.13 252.295L125.346 251.71L111.778 230.859L99.0146 209.962Z" fill="url(#paint74_linear_121_62471)"/>
<path d="M99.0146 209.962L103.399 210.268L129.13 252.295L125.346 251.71L111.778 230.859L99.0146 209.962Z" fill="url(#paint75_linear_121_62471)"/>
<path d="M99.0146 209.962L103.399 210.268L129.13 252.295L125.346 251.71L111.778 230.859L99.0146 209.962Z" fill="url(#paint76_radial_121_62471)"/>
<path d="M99.0146 209.962L103.399 210.268L129.13 252.295L125.346 251.71L111.778 230.859L99.0146 209.962Z" fill="url(#paint77_radial_121_62471)"/>
<path d="M99.0146 209.962L103.399 210.268L129.13 252.295L125.346 251.71L111.778 230.859L99.0146 209.962Z" fill="url(#paint78_radial_121_62471)"/>
<path d="M99.0146 209.962L103.399 210.268L129.13 252.295L125.346 251.71L111.778 230.859L99.0146 209.962Z" fill="url(#paint79_linear_121_62471)"/>
<defs>
<radialGradient id="paint0_radial_121_62471" cx="0" cy="0" r="1" gradientTransform="matrix(3.45714 145.585 -84.5225 -4.76644 275.03 289.588)" gradientUnits="userSpaceOnUse">
<stop stop-color="#FFFDB1"/>
<stop offset="0.344597" stop-color="#FEE4BF"/>
<stop offset="0.695017" stop-color="#F0BDD0"/>
<stop offset="1" stop-color="#FF8126" stop-opacity="0"/>
</radialGradient>
<linearGradient id="paint1_linear_121_62471" x1="191.295" y1="252.659" x2="236.541" y2="273.646" gradientUnits="userSpaceOnUse">
<stop stop-color="#C0A9F0" stop-opacity="0"/>
<stop offset="0.456382" stop-color="#C0A9F0"/>
<stop offset="1" stop-color="#C0A9F0" stop-opacity="0"/>
</linearGradient>
<linearGradient id="paint2_linear_121_62471" x1="270.15" y1="195.555" x2="261.713" y2="266.477" gradientUnits="userSpaceOnUse">
<stop stop-color="#C0A9F0" stop-opacity="0"/>
<stop offset="0.461891" stop-color="#C0A9F0"/>
<stop offset="1" stop-color="#C0A9F0" stop-opacity="0"/>
</linearGradient>
<linearGradient id="paint3_linear_121_62471" x1="148.475" y1="303.966" x2="200.981" y2="335.387" gradientUnits="userSpaceOnUse">
<stop stop-color="#CDF9E8"/>
<stop offset="1" stop-color="#CDF9E8" stop-opacity="0"/>
</linearGradient>
<radialGradient id="paint4_radial_121_62471" cx="0" cy="0" r="1" gradientTransform="matrix(-38.9349 -25.4562 48.1783 -94.5452 198.697 327.263)" gradientUnits="userSpaceOnUse">
<stop stop-color="#CBADEB"/>
<stop offset="1" stop-color="#C2A6F1" stop-opacity="0"/>
</radialGradient>
<radialGradient id="paint5_radial_121_62471" cx="0" cy="0" r="1" gradientTransform="matrix(-62.8421 -28.8126 30.7947 -93.3137 210.889 405.876)" gradientUnits="userSpaceOnUse">
<stop stop-color="#DC8DDC"/>
<stop offset="1" stop-color="#DC8DDC" stop-opacity="0"/>
</radialGradient>
<radialGradient id="paint6_radial_121_62471" cx="0" cy="0" r="1" gradientTransform="matrix(-61.7464 -14.5292 14.8242 -113.082 218.628 383.063)" gradientUnits="userSpaceOnUse">
<stop stop-color="#DC8DDC"/>
<stop offset="1" stop-color="#DC8DDC" stop-opacity="0"/>
</radialGradient>
<linearGradient id="paint7_linear_121_62471" x1="95.8975" y1="301.445" x2="136.399" y2="315.733" gradientUnits="userSpaceOnUse">
<stop stop-color="#EBF3D0"/>
<stop offset="1" stop-color="#EBF3D0" stop-opacity="0"/>
</linearGradient>
<radialGradient id="paint8_radial_121_62471" cx="0" cy="0" r="1" gradientTransform="matrix(-19.6947 78.5593 -29.3173 -20.8221 218.967 32.3925)" gradientUnits="userSpaceOnUse">
<stop stop-color="#FFFDB1"/>
<stop offset="0.344597" stop-color="#FEE4BF"/>
<stop offset="0.695017" stop-color="#F0BDD0"/>
<stop offset="1" stop-color="#FF8126" stop-opacity="0"/>
</radialGradient>
<linearGradient id="paint9_linear_121_62471" x1="194.551" y1="-5.4492" x2="213.136" y2="7.74907" gradientUnits="userSpaceOnUse">
<stop stop-color="#C0A9F0" stop-opacity="0"/>
<stop offset="0.456382" stop-color="#C0A9F0"/>
<stop offset="1" stop-color="#C0A9F0" stop-opacity="0"/>
</linearGradient>
<linearGradient id="paint10_linear_121_62471" x1="230.748" y1="-18.9208" x2="207.659" y2="8.96064" gradientUnits="userSpaceOnUse">
<stop stop-color="#C0A9F0" stop-opacity="0"/>
<stop offset="0.461891" stop-color="#C0A9F0"/>
<stop offset="1" stop-color="#C0A9F0" stop-opacity="0"/>
</linearGradient>
<linearGradient id="paint11_linear_121_62471" x1="171.979" y1="12.7148" x2="193.901" y2="31.9877" gradientUnits="userSpaceOnUse">
<stop stop-color="#CDF9E8"/>
<stop offset="1" stop-color="#CDF9E8" stop-opacity="0"/>
</linearGradient>
<radialGradient id="paint12_radial_121_62471" cx="0" cy="0" r="1" gradientTransform="matrix(-10.1621 -22.0239 30.6885 -40.1157 186.457 36.0253)" gradientUnits="userSpaceOnUse">
<stop stop-color="#CBADEB"/>
<stop offset="1" stop-color="#C2A6F1" stop-opacity="0"/>
</radialGradient>
<radialGradient id="paint13_radial_121_62471" cx="0" cy="0" r="1" gradientTransform="matrix(-18.1659 -28.9867 24.341 -43.216 179.488 80.6785)" gradientUnits="userSpaceOnUse">
<stop stop-color="#DC8DDC"/>
<stop offset="1" stop-color="#DC8DDC" stop-opacity="0"/>
</radialGradient>
<radialGradient id="paint14_radial_121_62471" cx="0" cy="0" r="1" gradientTransform="matrix(-19.8296 -21.1157 21.5129 -57.2345 185.513 70.1585)" gradientUnits="userSpaceOnUse">
<stop stop-color="#DC8DDC"/>
<stop offset="1" stop-color="#DC8DDC" stop-opacity="0"/>
</radialGradient>
<linearGradient id="paint15_linear_121_62471" x1="153.678" y1="0" x2="170" y2="9.57965" gradientUnits="userSpaceOnUse">
<stop stop-color="#EBF3D0"/>
<stop offset="1" stop-color="#EBF3D0" stop-opacity="0"/>
</linearGradient>
<radialGradient id="paint16_radial_121_62471" cx="0" cy="0" r="1" gradientTransform="matrix(-25.1403 102.872 -37.4234 -27.2663 272.894 117.338)" gradientUnits="userSpaceOnUse">
<stop stop-color="#FFFDB1"/>
<stop offset="0.344597" stop-color="#FEE4BF"/>
<stop offset="0.695017" stop-color="#F0BDD0"/>
<stop offset="1" stop-color="#FF8126" stop-opacity="0"/>
</radialGradient>
<linearGradient id="paint17_linear_121_62471" x1="241.727" y1="67.7852" x2="265.853" y2="84.4869" gradientUnits="userSpaceOnUse">
<stop stop-color="#C0A9F0" stop-opacity="0"/>
<stop offset="0.456382" stop-color="#C0A9F0"/>
<stop offset="1" stop-color="#C0A9F0" stop-opacity="0"/>
</linearGradient>
<linearGradient id="paint18_linear_121_62471" x1="287.933" y1="50.1443" x2="257.563" y2="85.8933" gradientUnits="userSpaceOnUse">
<stop stop-color="#C0A9F0" stop-opacity="0"/>
<stop offset="0.461891" stop-color="#C0A9F0"/>
<stop offset="1" stop-color="#C0A9F0" stop-opacity="0"/>
</linearGradient>
<linearGradient id="paint19_linear_121_62471" x1="212.914" y1="91.5708" x2="241.519" y2="116.084" gradientUnits="userSpaceOnUse">
<stop stop-color="#CDF9E8"/>
<stop offset="1" stop-color="#CDF9E8" stop-opacity="0"/>
</linearGradient>
<radialGradient id="paint20_radial_121_62471" cx="0" cy="0" r="1" gradientTransform="matrix(-12.9719 -28.84 39.1737 -52.5311 231.396 122.096)" gradientUnits="userSpaceOnUse">
<stop stop-color="#CBADEB"/>
<stop offset="1" stop-color="#C2A6F1" stop-opacity="0"/>
</radialGradient>
<radialGradient id="paint21_radial_121_62471" cx="0" cy="0" r="1" gradientTransform="matrix(-23.1887 -37.9578 31.0712 -56.5909 222.499 180.568)" gradientUnits="userSpaceOnUse">
<stop stop-color="#DC8DDC"/>
<stop offset="1" stop-color="#DC8DDC" stop-opacity="0"/>
</radialGradient>
<radialGradient id="paint22_radial_121_62471" cx="0" cy="0" r="1" gradientTransform="matrix(-25.3125 -27.6507 27.4612 -74.9478 230.19 166.793)" gradientUnits="userSpaceOnUse">
<stop stop-color="#DC8DDC"/>
<stop offset="1" stop-color="#DC8DDC" stop-opacity="0"/>
</radialGradient>
<linearGradient id="paint23_linear_121_62471" x1="189.553" y1="74.9209" x2="210.657" y2="86.9951" gradientUnits="userSpaceOnUse">
<stop stop-color="#EBF3D0"/>
<stop offset="1" stop-color="#EBF3D0" stop-opacity="0"/>
</linearGradient>
<radialGradient id="paint24_radial_121_62471" cx="0" cy="0" r="1" gradientTransform="matrix(-13.2219 70.8823 -19.6819 -18.7873 215.464 72.9618)" gradientUnits="userSpaceOnUse">
<stop stop-color="#FFFDB1"/>
<stop offset="0.344597" stop-color="#FEE4BF"/>
<stop offset="0.695017" stop-color="#F0BDD0"/>
<stop offset="1" stop-color="#FF8126" stop-opacity="0"/>
</radialGradient>
<linearGradient id="paint25_linear_121_62471" x1="199.073" y1="38.8181" x2="213.745" y2="46.571" gradientUnits="userSpaceOnUse">
<stop stop-color="#C0A9F0" stop-opacity="0"/>
<stop offset="0.456382" stop-color="#C0A9F0"/>
<stop offset="1" stop-color="#C0A9F0" stop-opacity="0"/>
</linearGradient>
<linearGradient id="paint26_linear_121_62471" x1="223.373" y1="26.6629" x2="202.29" y2="45.6062" gradientUnits="userSpaceOnUse">
<stop stop-color="#C0A9F0" stop-opacity="0"/>
<stop offset="0.461891" stop-color="#C0A9F0"/>
<stop offset="1" stop-color="#C0A9F0" stop-opacity="0"/>
</linearGradient>
<linearGradient id="paint27_linear_121_62471" x1="183.919" y1="55.2071" x2="202.192" y2="67.1602" gradientUnits="userSpaceOnUse">
<stop stop-color="#CDF9E8"/>
<stop offset="1" stop-color="#CDF9E8" stop-opacity="0"/>
</linearGradient>
<radialGradient id="paint28_radial_121_62471" cx="0" cy="0" r="1" gradientTransform="matrix(-6.82225 -19.8716 20.6024 -36.1955 193.639 76.2396)" gradientUnits="userSpaceOnUse">
<stop stop-color="#CBADEB"/>
<stop offset="1" stop-color="#C2A6F1" stop-opacity="0"/>
</radialGradient>
<radialGradient id="paint29_radial_121_62471" cx="0" cy="0" r="1" gradientTransform="matrix(-12.1955 -26.1541 16.3411 -38.9928 188.96 116.529)" gradientUnits="userSpaceOnUse">
<stop stop-color="#DC8DDC"/>
<stop offset="1" stop-color="#DC8DDC" stop-opacity="0"/>
</radialGradient>
<radialGradient id="paint30_radial_121_62471" cx="0" cy="0" r="1" gradientTransform="matrix(-13.3125 -19.0522 14.4425 -51.6414 193.005 107.037)" gradientUnits="userSpaceOnUse">
<stop stop-color="#DC8DDC"/>
<stop offset="1" stop-color="#DC8DDC" stop-opacity="0"/>
</radialGradient>
<linearGradient id="paint31_linear_121_62471" x1="171.633" y1="43.7348" x2="184.005" y2="49.1379" gradientUnits="userSpaceOnUse">
<stop stop-color="#EBF3D0"/>
<stop offset="1" stop-color="#EBF3D0" stop-opacity="0"/>
</linearGradient>
<radialGradient id="paint32_radial_121_62471" cx="0" cy="0" r="1" gradientTransform="matrix(-31.6505 123.628 -47.1145 -32.7674 134.483 178.268)" gradientUnits="userSpaceOnUse">
<stop stop-color="#FFFDB1"/>
<stop offset="0.344597" stop-color="#CEA4E8"/>
<stop offset="0.695017" stop-color="#D19DE5"/>
<stop offset="1" stop-color="#FF8126" stop-opacity="0"/>
</radialGradient>
<linearGradient id="paint33_linear_121_62471" x1="95.2453" y1="118.717" x2="124.689" y2="140.07" gradientUnits="userSpaceOnUse">
<stop stop-color="#C0A9F0" stop-opacity="0"/>
<stop offset="0.456382" stop-color="#C0A9F0"/>
<stop offset="1" stop-color="#C0A9F0" stop-opacity="0"/>
</linearGradient>
<linearGradient id="paint34_linear_121_62471" x1="153.416" y1="97.5165" x2="117.23" y2="142.139" gradientUnits="userSpaceOnUse">
<stop stop-color="#C0A9F0" stop-opacity="0"/>
<stop offset="0.461891" stop-color="#C0A9F0"/>
<stop offset="1" stop-color="#C0A9F0" stop-opacity="0"/>
</linearGradient>
<linearGradient id="paint35_linear_121_62471" x1="58.97" y1="147.301" x2="93.555" y2="178.35" gradientUnits="userSpaceOnUse">
<stop stop-color="#CDF9E8"/>
<stop offset="1" stop-color="#CDF9E8" stop-opacity="0"/>
</linearGradient>
<radialGradient id="paint36_radial_121_62471" cx="0" cy="0" r="1" gradientTransform="matrix(-16.3311 -34.6586 49.3181 -63.1296 82.2382 183.984)" gradientUnits="userSpaceOnUse">
<stop stop-color="#CBADEB"/>
<stop offset="1" stop-color="#C2A6F1" stop-opacity="0"/>
</radialGradient>
<radialGradient id="paint37_radial_121_62471" cx="0" cy="0" r="1" gradientTransform="matrix(-29.1936 -45.616 39.1173 -68.0085 71.0377 254.255)" gradientUnits="userSpaceOnUse">
<stop stop-color="#DC8DDC"/>
<stop offset="1" stop-color="#DC8DDC" stop-opacity="0"/>
</radialGradient>
<radialGradient id="paint38_radial_121_62471" cx="0" cy="0" r="1" gradientTransform="matrix(-31.8673 -33.2294 34.5724 -90.0691 80.7207 237.699)" gradientUnits="userSpaceOnUse">
<stop stop-color="#DC8DDC"/>
<stop offset="1" stop-color="#DC8DDC" stop-opacity="0"/>
</radialGradient>
<linearGradient id="paint39_linear_121_62471" x1="29.5596" y1="127.292" x2="55.5055" y2="142.843" gradientUnits="userSpaceOnUse">
<stop stop-color="#EBF3D0"/>
<stop offset="1" stop-color="#EBF3D0" stop-opacity="0"/>
</linearGradient>
<radialGradient id="paint40_radial_121_62471" cx="0" cy="0" r="1" gradientTransform="matrix(-36.2971 178.396 -54.0312 -47.2837 448.417 267.891)" gradientUnits="userSpaceOnUse">
<stop stop-color="#FFFDB1"/>
<stop offset="0.344597" stop-color="#FEE4BF"/>
<stop offset="0.695017" stop-color="#F0BDD0"/>
<stop offset="1" stop-color="#FF8126" stop-opacity="0"/>
</radialGradient>
<linearGradient id="paint41_linear_121_62471" x1="403.419" y1="181.959" x2="442.096" y2="204.251" gradientUnits="userSpaceOnUse">
<stop stop-color="#C0A9F0" stop-opacity="0"/>
<stop offset="0.456382" stop-color="#C0A9F0"/>
<stop offset="1" stop-color="#C0A9F0" stop-opacity="0"/>
</linearGradient>
<linearGradient id="paint42_linear_121_62471" x1="470.129" y1="151.367" x2="416.773" y2="203.658" gradientUnits="userSpaceOnUse">
<stop stop-color="#C0A9F0" stop-opacity="0"/>
<stop offset="0.461891" stop-color="#C0A9F0"/>
<stop offset="1" stop-color="#C0A9F0" stop-opacity="0"/>
</linearGradient>
<linearGradient id="paint43_linear_121_62471" x1="361.818" y1="223.206" x2="409.284" y2="257.073" gradientUnits="userSpaceOnUse">
<stop stop-color="#CDF9E8"/>
<stop offset="1" stop-color="#CDF9E8" stop-opacity="0"/>
</linearGradient>
<radialGradient id="paint44_radial_121_62471" cx="0" cy="0" r="1" gradientTransform="matrix(-18.7286 -50.0126 56.5583 -91.0964 388.502 276.141)" gradientUnits="userSpaceOnUse">
<stop stop-color="#CBADEB"/>
<stop offset="1" stop-color="#C2A6F1" stop-opacity="0"/>
</radialGradient>
<radialGradient id="paint45_radial_121_62471" cx="0" cy="0" r="1" gradientTransform="matrix(-33.4795 -65.8242 44.86 -98.1367 375.657 377.541)" gradientUnits="userSpaceOnUse">
<stop stop-color="#DC8DDC"/>
<stop offset="1" stop-color="#DC8DDC" stop-opacity="0"/>
</radialGradient>
<radialGradient id="paint46_radial_121_62471" cx="0" cy="0" r="1" gradientTransform="matrix(-36.5457 -47.9503 39.6479 -129.97 386.762 353.652)" gradientUnits="userSpaceOnUse">
<stop stop-color="#DC8DDC"/>
<stop offset="1" stop-color="#DC8DDC" stop-opacity="0"/>
</radialGradient>
<linearGradient id="paint47_linear_121_62471" x1="328.09" y1="194.333" x2="361.054" y2="210.035" gradientUnits="userSpaceOnUse">
<stop stop-color="#EBF3D0"/>
<stop offset="1" stop-color="#EBF3D0" stop-opacity="0"/>
</linearGradient>
<radialGradient id="paint48_radial_121_62471" cx="0" cy="0" r="1" gradientTransform="matrix(-140.751 268.534 -195.271 -78.1097 448.454 184.35)" gradientUnits="userSpaceOnUse">
<stop stop-color="#FFFDB1"/>
<stop offset="0.173895" stop-color="#FEE4BF"/>
<stop offset="0.695017" stop-color="#F0BDD0"/>
<stop offset="1" stop-color="#FF8126" stop-opacity="0"/>
</radialGradient>
<linearGradient id="paint49_linear_121_62471" x1="275.841" y1="48.2632" x2="340.881" y2="137.937" gradientUnits="userSpaceOnUse">
<stop stop-color="#C0A9F0" stop-opacity="0"/>
<stop offset="0.456382" stop-color="#C0A9F0"/>
<stop offset="1" stop-color="#C0A9F0" stop-opacity="0"/>
</linearGradient>
<linearGradient id="paint50_linear_121_62471" x1="520.122" y1="1.43453" x2="410.358" y2="194.51" gradientUnits="userSpaceOnUse">
<stop stop-color="#C0A9F0" stop-opacity="0"/>
<stop offset="0.461891" stop-color="#C0A9F0"/>
<stop offset="1" stop-color="#C0A9F0" stop-opacity="0"/>
</linearGradient>
<linearGradient id="paint51_linear_121_62471" x1="123.506" y1="111.403" x2="190.536" y2="225.808" gradientUnits="userSpaceOnUse">
<stop stop-color="#CDF9E8"/>
<stop offset="1" stop-color="#CDF9E8" stop-opacity="0"/>
</linearGradient>
<radialGradient id="paint52_radial_121_62471" cx="0" cy="0" r="1" gradientTransform="matrix(-68.5808 -76.5569 207.106 -139.446 221.219 192.432)" gradientUnits="userSpaceOnUse">
<stop stop-color="#CBADEB"/>
<stop offset="1" stop-color="#C2A6F1" stop-opacity="0"/>
</radialGradient>
<radialGradient id="paint53_radial_121_62471" cx="0" cy="0" r="1" gradientTransform="matrix(-122.596 -100.76 164.269 -150.223 174.183 347.651)" gradientUnits="userSpaceOnUse">
<stop stop-color="#DC8DDC"/>
<stop offset="1" stop-color="#DC8DDC" stop-opacity="0"/>
</radialGradient>
<radialGradient id="paint54_radial_121_62471" cx="0" cy="0" r="1" gradientTransform="matrix(-133.824 -73.3999 145.184 -198.952 214.846 311.082)" gradientUnits="userSpaceOnUse">
<stop stop-color="#DC8DDC"/>
<stop offset="1" stop-color="#DC8DDC" stop-opacity="0"/>
</radialGradient>
<linearGradient id="paint55_linear_121_62471" x1="0" y1="67.2051" x2="64.4363" y2="140.627" gradientUnits="userSpaceOnUse">
<stop stop-color="#EBF3D0"/>
<stop offset="1" stop-color="#EBF3D0" stop-opacity="0"/>
</linearGradient>
<radialGradient id="paint56_radial_121_62471" cx="0" cy="0" r="1" gradientTransform="matrix(-12.9364 56.8163 -19.257 -15.0591 83.7965 145.735)" gradientUnits="userSpaceOnUse">
<stop stop-color="#FFFDB1"/>
<stop offset="0.344597" stop-color="#FEE4BF"/>
<stop offset="0.695017" stop-color="#F0BDD0"/>
<stop offset="1" stop-color="#FF8126" stop-opacity="0"/>
</radialGradient>
<linearGradient id="paint57_linear_121_62471" x1="67.7588" y1="118.367" x2="80.7278" y2="126.731" gradientUnits="userSpaceOnUse">
<stop stop-color="#C0A9F0" stop-opacity="0"/>
<stop offset="0.456382" stop-color="#C0A9F0"/>
<stop offset="1" stop-color="#C0A9F0" stop-opacity="0"/>
</linearGradient>
<linearGradient id="paint58_linear_121_62471" x1="91.5347" y1="108.624" x2="74.6104" y2="127.185" gradientUnits="userSpaceOnUse">
<stop stop-color="#C0A9F0" stop-opacity="0"/>
<stop offset="0.461891" stop-color="#C0A9F0"/>
<stop offset="1" stop-color="#C0A9F0" stop-opacity="0"/>
</linearGradient>
<linearGradient id="paint59_linear_121_62471" x1="52.9321" y1="131.503" x2="68.5225" y2="143.951" gradientUnits="userSpaceOnUse">
<stop stop-color="#CDF9E8"/>
<stop offset="1" stop-color="#CDF9E8" stop-opacity="0"/>
</linearGradient>
<radialGradient id="paint60_radial_121_62471" cx="0" cy="0" r="1" gradientTransform="matrix(-6.67496 -15.9283 20.1576 -29.0128 62.4425 148.362)" gradientUnits="userSpaceOnUse">
<stop stop-color="#CBADEB"/>
<stop offset="1" stop-color="#C2A6F1" stop-opacity="0"/>
</radialGradient>
<radialGradient id="paint61_radial_121_62471" cx="0" cy="0" r="1" gradientTransform="matrix(-11.9322 -20.964 15.9883 -31.2551 57.8645 180.657)" gradientUnits="userSpaceOnUse">
<stop stop-color="#DC8DDC"/>
<stop offset="1" stop-color="#DC8DDC" stop-opacity="0"/>
</radialGradient>
<radialGradient id="paint62_radial_121_62471" cx="0" cy="0" r="1" gradientTransform="matrix(-13.025 -15.2714 14.1307 -41.3936 61.8223 173.048)" gradientUnits="userSpaceOnUse">
<stop stop-color="#DC8DDC"/>
<stop offset="1" stop-color="#DC8DDC" stop-opacity="0"/>
</radialGradient>
<linearGradient id="paint63_linear_121_62471" x1="40.9113" y1="122.308" x2="52.1363" y2="128.291" gradientUnits="userSpaceOnUse">
<stop stop-color="#EBF3D0"/>
<stop offset="1" stop-color="#EBF3D0" stop-opacity="0"/>
</linearGradient>
<radialGradient id="paint64_radial_121_62471" cx="0" cy="0" r="1" gradientTransform="matrix(-9.21107 81.8285 -71.8094 21.1801 166.013 31.3981)" gradientUnits="userSpaceOnUse">
<stop stop-color="#FFFDB1"/>
<stop offset="0.344597" stop-color="#FEE4BF"/>
<stop offset="0.695017" stop-color="#F0BDD0"/>
<stop offset="1" stop-color="#FF8126" stop-opacity="0"/>
</radialGradient>
<linearGradient id="paint65_linear_121_62471" x1="97.5635" y1="34.063" x2="122.269" y2="50.9994" gradientUnits="userSpaceOnUse">
<stop stop-color="#C0A9F0" stop-opacity="0"/>
<stop offset="0.456382" stop-color="#C0A9F0"/>
<stop offset="1" stop-color="#C0A9F0" stop-opacity="0"/>
</linearGradient>
<linearGradient id="paint66_linear_121_62471" x1="169.701" y1="-20.7059" x2="179.117" y2="16.2755" gradientUnits="userSpaceOnUse">
<stop stop-color="#C0A9F0" stop-opacity="0"/>
<stop offset="0.461891" stop-color="#C0A9F0"/>
<stop offset="1" stop-color="#C0A9F0" stop-opacity="0"/>
</linearGradient>
<linearGradient id="paint67_linear_121_62471" x1="56.6957" y1="75.3483" x2="83.7756" y2="97.1754" gradientUnits="userSpaceOnUse">
<stop stop-color="#CDF9E8"/>
<stop offset="1" stop-color="#CDF9E8" stop-opacity="0"/>
</linearGradient>
<radialGradient id="paint68_radial_121_62471" cx="0" cy="0" r="1" gradientTransform="matrix(-31.1351 -3.47361 49.0586 -67.3935 97.6537 74.4037)" gradientUnits="userSpaceOnUse">
<stop stop-color="#CBADEB"/>
<stop offset="1" stop-color="#C2A6F1" stop-opacity="0"/>
</radialGradient>
<radialGradient id="paint69_radial_121_62471" cx="0" cy="0" r="1" gradientTransform="matrix(-51.2786 1.37496 34.1049 -61.7795 101.501 115.671)" gradientUnits="userSpaceOnUse">
<stop stop-color="#DC8DDC"/>
<stop offset="1" stop-color="#DC8DDC" stop-opacity="0"/>
</radialGradient>
<radialGradient id="paint70_radial_121_62471" cx="0" cy="0" r="1" gradientTransform="matrix(-51.536 9.18935 22.113 -68.5088 110.018 100.508)" gradientUnits="userSpaceOnUse">
<stop stop-color="#DC8DDC"/>
<stop offset="1" stop-color="#DC8DDC" stop-opacity="0"/>
</radialGradient>
<linearGradient id="paint71_linear_121_62471" x1="11.9893" y1="88.7764" x2="35.6416" y2="102.395" gradientUnits="userSpaceOnUse">
<stop stop-color="#EBF3D0"/>
<stop offset="1" stop-color="#EBF3D0" stop-opacity="0"/>
</linearGradient>
<radialGradient id="paint72_radial_121_62471" cx="0" cy="0" r="1" gradientTransform="matrix(-8.03791 41.5852 -11.9651 -11.0221 126.414 226.735)" gradientUnits="userSpaceOnUse">
<stop stop-color="#FFFDB1"/>
<stop offset="0.344597" stop-color="#FEE4BF"/>
<stop offset="0.695017" stop-color="#F0BDD0"/>
<stop offset="1" stop-color="#FF8126" stop-opacity="0"/>
</radialGradient>
<linearGradient id="paint73_linear_121_62471" x1="116.449" y1="206.703" x2="125.228" y2="211.51" gradientUnits="userSpaceOnUse">
<stop stop-color="#C0A9F0" stop-opacity="0"/>
<stop offset="0.456382" stop-color="#C0A9F0"/>
<stop offset="1" stop-color="#C0A9F0" stop-opacity="0"/>
</linearGradient>
<linearGradient id="paint74_linear_121_62471" x1="131.222" y1="199.572" x2="118.814" y2="211.125" gradientUnits="userSpaceOnUse">
<stop stop-color="#C0A9F0" stop-opacity="0"/>
<stop offset="0.461891" stop-color="#C0A9F0"/>
<stop offset="1" stop-color="#C0A9F0" stop-opacity="0"/>
</linearGradient>
<linearGradient id="paint75_linear_121_62471" x1="107.237" y1="216.318" x2="118.106" y2="223.685" gradientUnits="userSpaceOnUse">
<stop stop-color="#CDF9E8"/>
<stop offset="1" stop-color="#CDF9E8" stop-opacity="0"/>
</linearGradient>
<radialGradient id="paint76_radial_121_62471" cx="0" cy="0" r="1" gradientTransform="matrix(-4.14742 -11.6583 12.5247 -21.2352 113.146 228.658)" gradientUnits="userSpaceOnUse">
<stop stop-color="#CBADEB"/>
<stop offset="1" stop-color="#C2A6F1" stop-opacity="0"/>
</radialGradient>
<radialGradient id="paint77_radial_121_62471" cx="0" cy="0" r="1" gradientTransform="matrix(-7.41396 -15.3441 9.93417 -22.8763 110.302 252.295)" gradientUnits="userSpaceOnUse">
<stop stop-color="#DC8DDC"/>
<stop offset="1" stop-color="#DC8DDC" stop-opacity="0"/>
</radialGradient>
<radialGradient id="paint78_radial_121_62471" cx="0" cy="0" r="1" gradientTransform="matrix(-8.09297 -11.1775 8.77996 -30.297 112.761 246.726)" gradientUnits="userSpaceOnUse">
<stop stop-color="#DC8DDC"/>
<stop offset="1" stop-color="#DC8DDC" stop-opacity="0"/>
</radialGradient>
<linearGradient id="paint79_linear_121_62471" x1="99.7679" y1="209.588" x2="119.272" y2="212.373" gradientUnits="userSpaceOnUse">
<stop stop-color="#D992DF"/>
<stop offset="1" stop-color="#CDA8E9"/>
</linearGradient>
</defs>
</svg>
